<svg width="24" height="24" viewBox="0 0 24 24" fill="none" xmlns="http://www.w3.org/2000/svg">
<path d="M12 22.9091C12.1846 22.908 12.3633 22.8446 12.5073 22.7291C12.8182 22.4509 21 15.8564 21 9C21 6.61305 20.0518 4.32387 18.364 2.63604C16.6761 0.948212 14.3869 0 12 0C9.61305 0 7.32387 0.948212 5.63604 2.63604C3.94821 4.32387 3 6.61305 3 9C3 15.8564 11.1818 22.4509 11.4927 22.7291C11.6367 22.8446 11.8154 22.908 12 22.9091ZM4.63636 9C4.63636 7.04704 5.41217 5.17407 6.79312 3.79312C8.17407 2.41217 10.047 1.63636 12 1.63636C13.953 1.63636 15.8259 2.41217 17.2069 3.79312C18.5878 5.17407 19.3636 7.04704 19.3636 9C19.3636 14.1545 13.7427 19.4809 12 21.0191C10.2573 19.4809 4.63636 14.1545 4.63636 9Z" fill="#4D1A2D"/>
<path d="M16.091 9.00009C16.091 8.19099 15.8511 7.40005 15.4016 6.7273C14.952 6.05456 14.3131 5.53021 13.5656 5.22058C12.8181 4.91095 11.9956 4.82994 11.202 4.98779C10.4084 5.14564 9.67951 5.53526 9.10738 6.10738C8.53526 6.67951 8.14564 7.40844 7.98779 8.20199C7.82994 8.99555 7.91095 9.8181 8.22058 10.5656C8.53021 11.3131 9.05456 11.952 9.7273 12.4016C10.4001 12.8511 11.191 13.091 12.0001 13.091C13.0851 13.091 14.1256 12.66 14.8928 11.8928C15.66 11.1256 16.091 10.0851 16.091 9.00009ZM9.54555 9.00009C9.54555 8.51463 9.6895 8.04007 9.95921 7.63642C10.2289 7.23277 10.6123 6.91817 11.0608 6.73239C11.5093 6.54661 12.0028 6.498 12.479 6.59271C12.9551 6.68742 13.3924 6.92119 13.7357 7.26447C14.079 7.60774 14.3128 8.0451 14.4075 8.52123C14.5022 8.99737 14.4536 9.4909 14.2678 9.93941C14.082 10.3879 13.7674 10.7713 13.3638 11.041C12.9601 11.3107 12.4856 11.4546 12.0001 11.4546C11.3491 11.4546 10.7248 11.196 10.2645 10.7357C9.80415 10.2754 9.54555 9.65108 9.54555 9.00009Z" fill="#4D1A2D"/>
</svg>
