<svg width="18" height="18" viewBox="0 0 18 18" fill="none" xmlns="http://www.w3.org/2000/svg">
<path d="M5.09697 4.90095L5.09697 4.90091C5.11739 2.74661 6.87557 1 9.00417 1C11.1542 1 12.9316 2.79463 12.9114 4.93312C12.891 7.08631 11.1149 8.83556 9.00552 8.82382C6.83873 8.80686 5.07679 7.02266 5.09697 4.90095Z" stroke="#9B9B9B" stroke-width="2"/>
<path d="M1.03964 15.5293L1.03963 15.5293C0.996837 16.0158 0.997969 16.4794 1.00161 16.9846C7.22908 16.985 9.22445 16.9886 10.7068 16.9923C10.8585 16.9927 11.0048 16.993 11.1497 16.9934C12.3813 16.9966 13.5126 16.9995 16.9989 16.9999C17.0006 16.6522 17.0011 16.3111 16.9956 15.9641L16.9956 15.962C16.9827 15.0233 16.7369 14.1979 16.2159 13.4823L16.2155 13.4818C15.3128 12.2404 14.1222 11.6417 12.5801 11.6373L1.03964 15.5293ZM1.03964 15.5293L1.04005 15.5243M1.03964 15.5293L1.04005 15.5243M1.04005 15.5243C1.1264 14.4831 1.55861 13.5958 2.32766 12.8508M1.04005 15.5243L2.32766 12.8508M2.32766 12.8508C3.18327 12.0282 4.20261 11.6373 5.41579 11.6373C6.21285 11.6373 7.00971 11.6367 7.80634 11.6361C9.39837 11.635 10.9895 11.6339 12.5795 11.6373L2.32766 12.8508Z" stroke="#9B9B9B" stroke-width="2"/>
</svg>
