<svg width="375" height="258" viewBox="0 0 375 258" fill="none" xmlns="http://www.w3.org/2000/svg">
<path d="M0.0970993 0H375V258H0.0970993V0Z" fill="#C64274"/>
<path d="M119.691 142.276C58.4164 171.532 38.0917 225.938 35.5887 249.484L35.0881 258H313.926C319.6 247.313 326.942 226.439 337.955 198.885C349.97 171.332 364.988 158.474 375 151.794V0H236.332C218.711 11.6225 198.844 52.268 191.114 71.1379C181.676 94.1026 160.801 122.647 119.691 142.276Z" fill="#DC4981"/>
<path d="M7.62939e-06 115.724C61.2743 86.4674 81.5989 32.062 84.1019 8.51633L84.6025 -0.000160217L1.77437e-05 -0.000167615L7.62939e-06 115.724Z" fill="#DC4981"/>
</svg>
