<svg width="26" height="26" viewBox="0 0 26 26" fill="none" xmlns="http://www.w3.org/2000/svg">
<path opacity="0.1" d="M13 25.5C19.0751 25.5 24 24.5637 24 23.4087C24 22.2537 19.0751 21.3174 13 21.3174C6.92487 21.3174 2 22.2537 2 23.4087C2 24.5637 6.92487 25.5 13 25.5Z" fill="black"/>
<path d="M13 9.81494C17.8598 9.81494 21.8 13.092 21.8 17.1346C21.8 21.1771 17.51 24.2116 12.6557 24.2116C7.80141 24.2116 4.20001 21.1771 4.20001 17.1346C4.20001 13.092 8.14021 9.81494 13 9.81494Z" fill="#FAE62F"/>
<path d="M8.16438 23.3397C6.08876 22.4125 4.30899 20.9786 3.00652 19.1842C2.53424 18.4231 2.2257 17.5803 2.0988 16.7049C1.97191 15.8294 2.02919 14.9388 2.26732 14.0845C2.5743 12.9348 3.04306 11.8296 3.66099 10.799C4.28996 9.82248 4.70769 8.73646 4.88969 7.60455C4.90993 7.35502 5.01446 7.11839 5.18772 6.92995C5.36097 6.74151 5.59369 6.61136 5.85112 6.55889C6.10749 6.50774 6.37428 6.53458 6.61374 6.63554C6.85321 6.7365 7.05316 6.9065 7.18536 7.12148C7.41176 7.49708 7.60423 7.89023 7.76067 8.29676C9.58337 5.77881 10.3611 3.6018 10.0707 1.81372C10.0397 1.61967 10.0622 1.42128 10.136 1.23798C10.2099 1.05468 10.3326 0.892761 10.492 0.768059C10.651 0.645655 10.8388 0.561739 11.0394 0.523493C11.24 0.485247 11.4474 0.493791 11.6437 0.548447C12.7174 0.921113 13.7042 1.4894 14.5488 2.22148C15.4403 2.96828 16.2132 3.83404 16.8434 4.79172L16.927 4.91719C17.0016 4.80007 17.0977 4.69665 17.2108 4.61187C17.4238 4.46083 17.6807 4.37608 17.9463 4.36915C18.2119 4.36223 18.4733 4.43348 18.6947 4.57319C19.9549 5.56274 21.0304 6.7474 21.8759 8.07722C23.2712 10.0584 23.9949 12.3982 23.9494 14.782C23.8428 16.4083 23.2497 17.9719 22.24 19.2888C20.8838 20.9832 19.1448 22.3668 17.1514 23.3376C16.7014 23.5333 16.2339 23.6901 15.7544 23.806L16.4903 22.1947C16.9416 21.0457 17.206 19.838 17.2746 18.6133C17.3545 17.5554 17.1561 16.4953 16.6971 15.5286C16.0825 14.2476 15.0059 13.2179 13.6622 12.6258C13.4876 12.4858 13.2874 12.3777 13.0715 12.3069C13.1543 12.4282 13.1948 12.5713 13.187 12.7157C13.3647 13.3311 13.3743 13.9795 13.2149 14.5994C13.0555 15.2193 12.7325 15.7903 12.2762 16.2584C11.9239 16.4985 11.5031 16.6311 11.0697 16.6386C10.6363 16.646 10.2108 16.5281 9.84956 16.3003C9.68407 16.2246 9.53888 16.1141 9.42497 15.9772C9.35897 16.0723 9.29189 16.1664 9.22369 16.2584C8.25679 17.5645 8.16993 19.6046 9.42283 22.0148C9.87638 22.7497 10.3879 23.4509 10.9529 24.1124C10.9529 24.1124 9.88152 23.8918 9.30292 23.7266C8.91248 23.6288 8.53155 23.4994 8.16438 23.3397Z" fill="white"/>
</svg>
