<svg width="20" height="20" viewBox="0 0 20 20" fill="none" xmlns="http://www.w3.org/2000/svg">
<path d="M12.8311 4.96642C13.0826 4.71486 13.0826 4.30701 12.8311 4.05546C12.5795 3.8039 12.1717 3.8039 11.9201 4.05546L6.45552 9.52007C6.20396 9.77163 6.20396 10.1795 6.45552 10.431C6.70707 10.6826 7.11492 10.6826 7.36648 10.431L12.8311 4.96642Z" fill="#999999" stroke="#999999"/>
<path d="M11.9207 15.9445C12.1722 16.196 12.5801 16.196 12.8316 15.9445C13.0832 15.6929 13.0832 15.2851 12.8316 15.0335L7.36701 9.56892C7.11546 9.31736 6.70761 9.31736 6.45605 9.56892C6.2045 9.82047 6.2045 10.2283 6.45605 10.4799L11.9207 15.9445Z" fill="#999999" stroke="#999999"/>
</svg>
