<svg width="343" height="84" viewBox="0 0 343 84" fill="none" xmlns="http://www.w3.org/2000/svg">
<path d="M225.218 84H0V80.1C0.374305 80.3826 0.830969 80.5347 1.3 80.533C1.87419 80.533 2.42487 80.3049 2.83089 79.8989C3.2369 79.4929 3.465 78.9422 3.465 78.368C3.465 77.7938 3.2369 77.2431 2.83089 76.8371C2.42487 76.4311 1.87419 76.203 1.3 76.203C0.830969 76.2013 0.374305 76.3534 0 76.636L0 71.436C0.37427 71.7187 0.830958 71.8708 1.3 71.869C1.87419 71.869 2.42487 71.6409 2.83089 71.2349C3.2369 70.8289 3.465 70.2782 3.465 69.704C3.465 69.1298 3.2369 68.5791 2.83089 68.1731C2.42487 67.7671 1.87419 67.539 1.3 67.539C0.830981 67.5373 0.37434 67.6894 0 67.972L0 63.649C0.37427 63.9317 0.830958 64.0838 1.3 64.082C1.87419 64.082 2.42487 63.8539 2.83089 63.4479C3.2369 63.0419 3.465 62.4912 3.465 61.917C3.465 61.3428 3.2369 60.7921 2.83089 60.3861C2.42487 59.9801 1.87419 59.752 1.3 59.752C0.830981 59.7503 0.37434 59.9024 0 60.185L0 55.855C0.37427 56.1377 0.830958 56.2898 1.3 56.288C1.87419 56.288 2.42487 56.0599 2.83089 55.6539C3.2369 55.2479 3.465 54.6972 3.465 54.123C3.465 53.5488 3.2369 52.9981 2.83089 52.5921C2.42487 52.1861 1.87419 51.958 1.3 51.958C0.830969 51.9562 0.374305 52.1084 0 52.391L0 48.061C0.37427 48.3437 0.830958 48.4958 1.3 48.494C1.87419 48.494 2.42487 48.2659 2.83089 47.8599C3.2369 47.4539 3.465 46.9032 3.465 46.329C3.465 45.7548 3.2369 45.2041 2.83089 44.7981C2.42487 44.3921 1.87419 44.164 1.3 44.164C0.830635 44.1632 0.37396 44.3163 0 44.6L0 40.27C0.37427 40.5527 0.830958 40.7048 1.3 40.703C1.87419 40.703 2.42487 40.4749 2.83089 40.0689C3.2369 39.6629 3.465 39.1122 3.465 38.538C3.465 37.9638 3.2369 37.4131 2.83089 37.0071C2.42487 36.6011 1.87419 36.373 1.3 36.373C0.831671 36.3696 0.375097 36.5196 0 36.8L0 32.47C0.374305 32.7526 0.830969 32.9048 1.3 32.903C1.87419 32.903 2.42487 32.6749 2.83089 32.2689C3.2369 31.8629 3.465 31.3122 3.465 30.738C3.465 30.1638 3.2369 29.6131 2.83089 29.2071C2.42487 28.8011 1.87419 28.573 1.3 28.573C0.830508 28.5724 0.373798 28.7259 0 29.01L0 23.81C0.37427 24.0927 0.830958 24.2448 1.3 24.243C1.87419 24.243 2.42487 24.0149 2.83089 23.6089C3.2369 23.2029 3.465 22.6522 3.465 22.078C3.465 21.5038 3.2369 20.9531 2.83089 20.5471C2.42487 20.1411 1.87419 19.913 1.3 19.913C0.830508 19.9124 0.373798 20.0659 0 20.35L0 16.02C0.37427 16.3027 0.830958 16.4548 1.3 16.453C1.87419 16.453 2.42487 16.2249 2.83089 15.8189C3.2369 15.4129 3.465 14.8622 3.465 14.288C3.465 13.7138 3.2369 13.1631 2.83089 12.7571C2.42487 12.3511 1.87419 12.123 1.3 12.123C0.830981 12.1213 0.37434 12.2734 0 12.556L0 8.227C0.37427 8.50971 0.830958 8.66182 1.3 8.66C1.87419 8.66 2.42487 8.4319 2.83089 8.02589C3.2369 7.61987 3.465 7.06919 3.465 6.495C3.465 5.92081 3.2369 5.37013 2.83089 4.96411C2.42487 4.5581 1.87419 4.33 1.3 4.33C0.830981 4.32832 0.37434 4.48042 0 4.763L0 0H225.218C225.217 0.568791 225.328 1.13222 225.546 1.65765C225.764 2.18308 226.084 2.66007 226.487 3.061C226.888 3.4641 227.364 3.7838 227.889 4.00162C228.414 4.21943 228.977 4.33104 229.545 4.33C230.692 4.32815 231.792 3.87123 232.603 3.05948C233.414 2.24774 233.87 1.14745 233.871 0H343V5.179C342.725 4.81951 342.344 4.55526 341.911 4.4234C341.478 4.29154 341.015 4.29871 340.586 4.4439C340.157 4.58908 339.785 4.86498 339.521 5.2328C339.257 5.60063 339.116 6.04187 339.116 6.4945C339.116 6.94713 339.257 7.38837 339.521 7.7562C339.785 8.12402 340.157 8.39992 340.586 8.5451C341.015 8.69029 341.478 8.69746 341.911 8.5656C342.344 8.43374 342.725 8.16949 343 7.81V12.973C342.725 12.6135 342.344 12.3493 341.911 12.2174C341.478 12.0855 341.015 12.0927 340.586 12.2379C340.157 12.3831 339.785 12.659 339.521 13.0268C339.257 13.3946 339.116 13.8359 339.116 14.2885C339.116 14.7411 339.257 15.1824 339.521 15.5502C339.785 15.918 340.157 16.1939 340.586 16.3391C341.015 16.4843 341.478 16.4915 341.911 16.3596C342.344 16.2277 342.725 15.9635 343 15.604V20.767C342.725 20.4075 342.344 20.1433 341.911 20.0114C341.478 19.8795 341.015 19.8867 340.586 20.0319C340.157 20.1771 339.785 20.453 339.521 20.8208C339.257 21.1886 339.116 21.6299 339.116 22.0825C339.116 22.5351 339.257 22.9764 339.521 23.3442C339.785 23.712 340.157 23.9879 340.586 24.1331C341.015 24.2783 341.478 24.2855 341.911 24.1536C342.344 24.0217 342.725 23.7575 343 23.398V29.427C342.725 29.0675 342.344 28.8033 341.911 28.6714C341.478 28.5395 341.015 28.5467 340.586 28.6919C340.157 28.8371 339.785 29.113 339.521 29.4808C339.257 29.8486 339.116 30.2899 339.116 30.7425C339.116 31.1951 339.257 31.6364 339.521 32.0042C339.785 32.372 340.157 32.6479 340.586 32.7931C341.015 32.9383 341.478 32.9455 341.911 32.8136C342.344 32.6817 342.725 32.4175 343 32.058V37.22C342.725 36.8605 342.344 36.5963 341.911 36.4644C341.478 36.3325 341.015 36.3397 340.586 36.4849C340.157 36.6301 339.785 36.906 339.521 37.2738C339.257 37.6416 339.116 38.0829 339.116 38.5355C339.116 38.9881 339.257 39.4294 339.521 39.7972C339.785 40.165 340.157 40.4409 340.586 40.5861C341.015 40.7313 341.478 40.7385 341.911 40.6066C342.344 40.4747 342.725 40.2105 343 39.851V45.014C342.725 44.6545 342.344 44.3903 341.911 44.2584C341.478 44.1265 341.015 44.1337 340.586 44.2789C340.157 44.4241 339.785 44.7 339.521 45.0678C339.257 45.4356 339.116 45.8769 339.116 46.3295C339.116 46.7821 339.257 47.2234 339.521 47.5912C339.785 47.959 340.157 48.2349 340.586 48.3801C341.015 48.5253 341.478 48.5325 341.911 48.4006C342.344 48.2687 342.725 48.0045 343 47.645V52.808C342.725 52.4485 342.344 52.1843 341.911 52.0524C341.478 51.9205 341.015 51.9277 340.586 52.0729C340.157 52.2181 339.785 52.494 339.521 52.8618C339.257 53.2296 339.116 53.6709 339.116 54.1235C339.116 54.5761 339.257 55.0174 339.521 55.3852C339.785 55.753 340.157 56.0289 340.586 56.1741C341.015 56.3193 341.478 56.3265 341.911 56.1946C342.344 56.0627 342.725 55.7985 343 55.439V60.6C342.725 60.2405 342.344 59.9763 341.911 59.8444C341.478 59.7125 341.015 59.7197 340.586 59.8649C340.157 60.0101 339.785 60.286 339.521 60.6538C339.257 61.0216 339.116 61.4629 339.116 61.9155C339.116 62.3681 339.257 62.8094 339.521 63.1772C339.785 63.545 340.157 63.8209 340.586 63.9661C341.015 64.1113 341.478 64.1185 341.911 63.9866C342.344 63.8547 342.725 63.5905 343 63.231V68.4C342.725 68.0405 342.344 67.7763 341.911 67.6444C341.478 67.5125 341.015 67.5197 340.586 67.6649C340.157 67.8101 339.785 68.086 339.521 68.4538C339.257 68.8216 339.116 69.2629 339.116 69.7155C339.116 70.1681 339.257 70.6094 339.521 70.9772C339.785 71.345 340.157 71.6209 340.586 71.7661C341.015 71.9113 341.478 71.9185 341.911 71.7866C342.344 71.6547 342.725 71.3905 343 71.031V77.059C342.725 76.6995 342.344 76.4353 341.911 76.3034C341.478 76.1715 341.015 76.1787 340.586 76.3239C340.157 76.4691 339.785 76.745 339.521 77.1128C339.257 77.4806 339.116 77.9219 339.116 78.3745C339.116 78.8271 339.257 79.2684 339.521 79.6362C339.785 80.004 340.157 80.2799 340.586 80.4251C341.015 80.5703 341.478 80.5775 341.911 80.4456C342.344 80.3137 342.725 80.0495 343 79.69V84H233.871C233.88 83.4263 233.774 82.8566 233.561 82.324C233.347 81.7915 233.03 81.3067 232.627 80.8979C232.225 80.4891 231.745 80.1645 231.216 79.9429C230.686 79.7213 230.118 79.6072 229.544 79.6072C228.971 79.6072 228.403 79.7213 227.873 79.9429C227.344 80.1645 226.864 80.4891 226.462 80.8979C226.059 81.3067 225.742 81.7915 225.528 82.324C225.315 82.8566 225.209 83.4263 225.218 84Z" fill="#DC4981"/>
<path d="M229.5 6.48096V77.5" stroke="white" stroke-dasharray="2 2"/>
</svg>
