<svg width="20" height="20" viewBox="0 0 20 20" fill="none" xmlns="http://www.w3.org/2000/svg">
<path d="M17.2414 17.4138H2.75862C1.61793 17.4138 0.689651 16.4855 0.689651 15.3448V7.06896C0.689651 5.92827 1.61793 5 2.75862 5H5.02L5.23793 4.34551C5.37501 3.93343 5.63841 3.575 5.99073 3.32109C6.34305 3.06719 6.7664 2.93071 7.20069 2.93103H12.7986C13.6903 2.93103 14.4793 3.49931 14.7614 4.34551L14.9793 5H17.2414C18.3821 5 19.3103 5.92827 19.3103 7.06896V15.3448C19.3103 16.4855 18.3821 17.4138 17.2414 17.4138ZM2.75862 6.37931C2.57571 6.37931 2.40029 6.45197 2.27096 6.5813C2.14162 6.71064 2.06896 6.88605 2.06896 7.06896V15.3448C2.06896 15.5277 2.14162 15.7031 2.27096 15.8325C2.40029 15.9618 2.57571 16.0345 2.75862 16.0345H17.2414C17.4243 16.0345 17.5997 15.9618 17.729 15.8325C17.8584 15.7031 17.931 15.5277 17.931 15.3448V7.06896C17.931 6.88605 17.8584 6.71064 17.729 6.5813C17.5997 6.45197 17.4243 6.37931 17.2414 6.37931H14.98C14.3855 6.37931 13.8593 6 13.6717 5.43586L13.4545 4.78207C13.4086 4.64474 13.3208 4.5253 13.2033 4.44065C13.0859 4.356 12.9448 4.31041 12.8 4.31034H7.20207C7.05721 4.3101 6.91597 4.35556 6.79846 4.44026C6.68095 4.52495 6.59316 4.64457 6.54758 4.78207L6.32827 5.43655C6.23704 5.7113 6.06151 5.9503 5.82663 6.11955C5.59176 6.2888 5.3095 6.3797 5.02 6.37931H2.75862Z" fill="#9B9B9B"/>
<path d="M10 15.3448C7.90896 15.3448 6.20689 13.6427 6.20689 11.5517C6.20689 9.46067 7.90896 7.75861 10 7.75861C12.091 7.75861 13.7931 9.46067 13.7931 11.5517C13.7931 13.6427 12.091 15.3448 10 15.3448ZM10 9.13792C8.66896 9.13792 7.5862 10.2207 7.5862 11.5517C7.5862 12.8827 8.66896 13.9655 10 13.9655C11.331 13.9655 12.4138 12.8827 12.4138 11.5517C12.4138 10.2207 11.331 9.13792 10 9.13792Z" fill="#9B9B9B"/>
<path d="M14.1379 8.44828C14.5188 8.44828 14.8276 8.13951 14.8276 7.75862C14.8276 7.37774 14.5188 7.06897 14.1379 7.06897C13.757 7.06897 13.4483 7.37774 13.4483 7.75862C13.4483 8.13951 13.757 8.44828 14.1379 8.44828Z" fill="#9B9B9B"/>
<path d="M3.7931 3.27588H2.75862C2.66716 3.27588 2.57945 3.31221 2.51479 3.37688C2.45012 3.44154 2.41379 3.52925 2.41379 3.62071C2.41379 3.71216 2.45012 3.79987 2.51479 3.86454C2.57945 3.9292 2.66716 3.96553 2.75862 3.96553H3.7931C3.88455 3.96553 3.97226 3.9292 4.03693 3.86454C4.1016 3.79987 4.13793 3.71216 4.13793 3.62071C4.13793 3.52925 4.1016 3.44154 4.03693 3.37688C3.97226 3.31221 3.88455 3.27588 3.7931 3.27588Z" fill="#9B9B9B"/>
<path d="M3.79311 4.31034H2.75862C2.57572 4.31034 2.4003 4.23768 2.27097 4.10835C2.14163 3.97901 2.06897 3.80359 2.06897 3.62069C2.06897 3.43778 2.14163 3.26236 2.27097 3.13303C2.4003 3.00369 2.57572 2.93103 2.75862 2.93103H3.79311C3.97602 2.93103 4.15143 3.00369 4.28077 3.13303C4.4101 3.26236 4.48276 3.43778 4.48276 3.62069C4.48276 3.80359 4.4101 3.97901 4.28077 4.10835C4.15143 4.23768 3.97602 4.31034 3.79311 4.31034ZM2.75862 3.62069H3.79311H2.75862Z" fill="#9B9B9B"/>
</svg>
