<svg width="26" height="26" viewBox="0 0 26 26" fill="none" xmlns="http://www.w3.org/2000/svg">
<path d="M11.9 12.45H12.45V7.22452C12.4497 5.8388 11.8991 4.50993 10.9192 3.53017C9.93921 2.55041 8.61024 2 7.22452 2C5.83897 2.00025 4.51024 2.55077 3.53051 3.53051C2.55077 4.51024 2.00025 5.83897 2 7.22452C2 8.61024 2.55041 9.93921 3.53017 10.9192C4.50993 11.8991 5.8388 12.4497 7.22452 12.45H11.9ZM2 18.7755C2 19.4616 2.13514 20.1409 2.39769 20.7748C2.66025 21.4087 3.04509 21.9846 3.53023 22.4698C4.01537 22.9549 4.59131 23.3398 5.22518 23.6023C5.85905 23.8649 6.53843 24 7.22452 24C7.91069 24.0001 8.59017 23.8651 9.22415 23.6026C9.85813 23.3401 10.4342 22.9553 10.9194 22.4701C11.4047 21.985 11.7896 21.409 12.0522 20.775C12.3148 20.1411 12.45 19.4617 12.45 18.7755V13.55H7.22452C5.8388 13.5503 4.50993 14.1009 3.53017 15.0808C2.55041 16.0608 2 17.3898 2 18.7755ZM24 7.22452C24 6.53843 23.8649 5.85905 23.6023 5.22518C23.3397 4.59132 22.9549 4.01537 22.4698 3.53023C21.9846 3.04509 21.4087 2.66025 20.7748 2.39769C20.1409 2.13514 19.4616 2 18.7755 2C17.3898 2 16.0608 2.55041 15.0808 3.53017C14.1009 4.50993 13.5503 5.8388 13.55 7.22452V12.45H18.7755C19.4617 12.45 20.1411 12.3148 20.775 12.0522C21.409 11.7896 21.985 11.4047 22.4701 10.9194C22.9553 10.4342 23.3401 9.85813 23.6026 9.22415C23.8651 8.59017 24.0001 7.9107 24 7.22452Z" fill="white"/>
<path d="M23.5838 20.7748C23.8464 20.1409 23.9815 19.4616 23.9815 18.7755C23.9815 17.3897 23.4311 16.0608 22.4513 15.0808C21.4716 14.1009 20.1427 13.5502 18.757 13.55H13.5315V18.7755C13.5315 19.4616 13.6667 20.1411 13.9293 20.775C14.1919 21.409 14.5768 21.9849 15.0621 22.4701C15.5473 22.9553 16.1234 23.3401 16.7573 23.6026C17.3913 23.8651 18.0708 24.0001 18.757 24C19.4431 24 20.1224 23.8649 20.7563 23.6023C21.3902 23.3397 21.9661 22.9549 22.4513 22.4698C22.9364 21.9846 23.3212 21.4087 23.5838 20.7748Z" fill="white"/>
</svg>
