<svg width="30" height="17" viewBox="0 0 30 17" fill="none" xmlns="http://www.w3.org/2000/svg">
<path d="M22 17H2C1.46957 17 0.960859 16.7893 0.585786 16.4142C0.210714 16.0391 0 15.5304 0 15V2C0 1.46957 0.210714 0.960859 0.585786 0.585786C0.960859 0.210714 1.46957 0 2 0L22 0C22.0016 0.166836 22.0362 0.331705 22.1018 0.48513C22.1673 0.638554 22.2626 0.777507 22.382 0.894C22.681 1.18499 23.0828 1.34632 23.5 1.343C23.8767 1.36239 24.2457 1.2321 24.5267 0.980525C24.8077 0.72895 24.9778 0.376496 25 0L28 0C28.5304 0 29.0391 0.210714 29.4142 0.585786C29.7893 0.960859 30 1.46957 30 2V15C30 15.5304 29.7893 16.0391 29.4142 16.4142C29.0391 16.7893 28.5304 17 28 17H25C24.9983 16.8333 24.9637 16.6686 24.8981 16.5154C24.8326 16.3621 24.7374 16.2233 24.618 16.107C24.3189 15.8163 23.9171 15.6553 23.5 15.659C23.1237 15.6396 22.7549 15.7696 22.474 16.0208C22.1931 16.2719 22.0227 16.6239 22 17Z" fill="#DC4981"/>
<path fill-rule="evenodd" clip-rule="evenodd" d="M23 4.33333V3.5H24V4.33333H23ZM23 7.66667V6H24V7.66667H23ZM23 11V9.33333H24V11H23ZM23 13.5V12.6667H24V13.5H23Z" fill="white"/>
<path d="M14.2285 10.9492V11.2012C14.2285 11.5254 14.2773 11.7734 14.375 11.9453C14.4727 12.1172 14.6035 12.2031 14.7676 12.2031C14.9316 12.2031 15.0605 12.1191 15.1543 11.9512C15.252 11.7793 15.3008 11.5293 15.3008 11.2012V10.9492C15.3008 10.6211 15.252 10.373 15.1543 10.2051C15.0605 10.0332 14.9316 9.94727 14.7676 9.94727C14.6035 9.94727 14.4727 10.0332 14.375 10.2051C14.2773 10.377 14.2285 10.625 14.2285 10.9492ZM13.1562 11.2012V10.9434C13.1562 10.377 13.3008 9.92383 13.5898 9.58398C13.8789 9.24023 14.2734 9.06836 14.7734 9.06836C15.2773 9.06836 15.6699 9.23828 15.9512 9.57812C16.2363 9.91797 16.3789 10.373 16.3789 10.9434V11.2012C16.3789 11.7559 16.2363 12.209 15.9512 12.5605C15.666 12.9082 15.2676 13.082 14.7559 13.082C14.2559 13.082 13.8633 12.9121 13.5781 12.5723C13.2969 12.2285 13.1562 11.7715 13.1562 11.2012ZM9.3125 6.61914V6.87109C9.3125 7.19531 9.36133 7.44336 9.45898 7.61523C9.55664 7.78711 9.6875 7.87305 9.85156 7.87305C10.0156 7.87305 10.1445 7.78906 10.2383 7.62109C10.3359 7.44922 10.3848 7.19922 10.3848 6.87109V6.61914C10.3848 6.29102 10.3359 6.04297 10.2383 5.875C10.1445 5.70312 10.0156 5.61719 9.85156 5.61719C9.6875 5.61719 9.55664 5.70312 9.45898 5.875C9.36133 6.04688 9.3125 6.29492 9.3125 6.61914ZM8.24023 6.87109V6.61328C8.24023 6.04688 8.38477 5.59375 8.67383 5.25391C8.96289 4.91016 9.35742 4.73828 9.85742 4.73828C10.3613 4.73828 10.7539 4.9082 11.0352 5.24805C11.3203 5.58789 11.4629 6.04297 11.4629 6.61328V6.87109C11.4629 7.42578 11.3203 7.87891 11.0352 8.23047C10.75 8.57812 10.3516 8.75195 9.83984 8.75195C9.33984 8.75195 8.94727 8.58203 8.66211 8.24219C8.38086 7.89844 8.24023 7.44141 8.24023 6.87109ZM9.80469 13H8.69727L11.8613 8.89844L14.8262 5.00195H15.9336L12.7988 9.0625L9.80469 13Z" fill="white"/>
</svg>
