<svg width="30" height="17" viewBox="0 0 30 17" fill="none" xmlns="http://www.w3.org/2000/svg">
<path d="M22 17H2C1.46957 17 0.960859 16.7893 0.585786 16.4142C0.210714 16.0391 0 15.5304 0 15V2C0 1.46957 0.210714 0.960859 0.585786 0.585786C0.960859 0.210714 1.46957 0 2 0L22 0C22.0016 0.166836 22.0362 0.331705 22.1018 0.48513C22.1673 0.638554 22.2626 0.777507 22.382 0.894C22.681 1.18499 23.0828 1.34632 23.5 1.343C23.8767 1.36239 24.2457 1.2321 24.5267 0.980525C24.8077 0.72895 24.9778 0.376496 25 0L28 0C28.5304 0 29.0391 0.210714 29.4142 0.585786C29.7893 0.960859 30 1.46957 30 2V15C30 15.5304 29.7893 16.0391 29.4142 16.4142C29.0391 16.7893 28.5304 17 28 17H25C24.9983 16.8333 24.9637 16.6686 24.8981 16.5154C24.8326 16.3621 24.7374 16.2233 24.618 16.107C24.3189 15.8163 23.9171 15.6553 23.5 15.659C23.1237 15.6396 22.7549 15.7696 22.474 16.0208C22.1931 16.2719 22.0227 16.6239 22 17Z" fill="#DC4981"/>
<path fill-rule="evenodd" clip-rule="evenodd" d="M23 4.33333V3.5H24V4.33333H23ZM23 7.66667V6H24V7.66667H23ZM23 11V9.33333H24V11H23ZM23 13.5V12.6667H24V13.5H23Z" fill="white"/>
<path d="M9.8457 7.04102C9.8457 7.5332 10.1543 7.89062 10.7715 8.11328C10.8574 8.14844 10.9512 8.17969 11.0527 8.20703V5.88672C10.6895 5.93359 10.3965 6.05664 10.1738 6.25586C9.95508 6.45117 9.8457 6.71289 9.8457 7.04102ZM13.209 10.791C13.209 10.4941 13.1191 10.25 12.9395 10.0586C12.7598 9.86719 12.4551 9.70508 12.0254 9.57227C11.9551 9.55664 11.9004 9.54297 11.8613 9.53125V12.0332C12.2715 11.998 12.5977 11.873 12.8398 11.6582C13.0859 11.4395 13.209 11.1504 13.209 10.791ZM11.8672 13.7559H11.0352V13.0176C10.207 12.9551 9.57812 12.7109 9.14844 12.2852C8.72266 11.8555 8.50586 11.3457 8.49805 10.7559H9.65234C9.67578 11.0918 9.80664 11.373 10.0449 11.5996C10.2871 11.8262 10.623 11.9688 11.0527 12.0273V9.35547L10.5898 9.23828C10.332 9.17578 10.0938 9.0918 9.875 8.98633C9.65625 8.87695 9.45508 8.74023 9.27148 8.57617C9.08789 8.4082 8.94336 8.20117 8.83789 7.95508C8.73242 7.70898 8.67969 7.43359 8.67969 7.12891C8.67969 6.47656 8.89844 5.95898 9.33594 5.57617C9.77344 5.19336 10.3418 4.96875 11.041 4.90234V4.13477H11.8672V4.89648C12.5547 4.9668 13.1172 5.19922 13.5547 5.59375C13.9922 5.98438 14.2188 6.48828 14.2344 7.10547H13.0977C13.0898 6.79688 12.9746 6.5293 12.752 6.30273C12.5332 6.07617 12.2363 5.9375 11.8613 5.88672V8.40039L12.3359 8.51172C12.9922 8.67188 13.4961 8.92188 13.8477 9.26172C14.1992 9.60156 14.375 10.0781 14.375 10.6914C14.375 11.3711 14.1465 11.9121 13.6895 12.3145C13.2324 12.7129 12.623 12.9453 11.8613 13.0117L11.8672 13.7559Z" fill="white"/>
</svg>
