<svg width="18" height="22" viewBox="0 0 18 22" fill="none" xmlns="http://www.w3.org/2000/svg">
<path d="M14.17 3.91019L13.1 2.84019L7.55 8.39019V9.47019H8.63L14.17 3.91019ZM12 1.74019L13.29 0.450185C13.4286 0.309895 13.5936 0.198511 13.7756 0.12249C13.9576 0.0464693 14.1528 0.00732422 14.35 0.00732422C14.5472 0.00732422 14.7424 0.0464693 14.9244 0.12249C15.1064 0.198511 15.2714 0.309895 15.41 0.450185L16.56 1.60019C17.15 2.19019 17.15 3.14019 16.56 3.72019L15.88 4.40019L15.86 4.42019L15.28 5.00019L9.28 11.0002H6V7.74018L12 1.74019ZM9.72 1.19019L9.17 1.74019L7.9 3.01019C4.6 3.06019 2 5.61019 2 9.21019C2 11.5502 3.95 14.6502 8 18.3502C12.05 14.6502 14 11.5602 14 9.21019V9.11018L15.8 7.31019C15.93 7.91019 16 8.55019 16 9.21019C16 12.5302 13.33 16.4602 8 21.0102C2.67 16.4602 0 12.5302 0 9.21019C0 4.23019 3.8 1.01019 8 1.01019C8.58 1.01019 9.16 1.07019 9.72 1.19019Z" fill="#323232"/>
</svg>
