<svg width="85" height="85" viewBox="0 0 85 85" fill="none" xmlns="http://www.w3.org/2000/svg">
<rect width="85" height="85" rx="42.5" fill="#DDDDDD"/>
<circle cx="42.5" cy="42.5" r="41.5" fill="#DDDDDD"/>
<path d="M42.5 50.9156C51.9735 50.9156 59.6534 43.2358 59.6534 33.7622C59.6534 24.2887 51.9735 16.6089 42.5 16.6089C33.0265 16.6089 25.3467 24.2887 25.3467 33.7622C25.3467 43.2358 33.0265 50.9156 42.5 50.9156Z" fill="white"/>
<path fill-rule="evenodd" clip-rule="evenodd" d="M15.0657 73.6379C16.5228 69.7801 18.7911 66.2356 21.7633 63.2634C27.263 57.7635 34.7222 54.6738 42.5 54.6738C46.3512 54.6737 50.1648 55.4322 53.7229 56.9059C57.2811 58.3796 60.5141 60.5398 63.2374 63.2631C65.9607 65.9864 68.1209 69.2194 69.5948 72.7775C69.7131 73.0631 69.8268 73.3504 69.9359 73.6392C62.6221 80.0878 53.0187 84 42.5015 84C31.9836 84 22.3796 80.0872 15.0657 73.6379Z" fill="white"/>
</svg>
