<svg width="30" height="30" viewBox="0 0 30 30" fill="none" xmlns="http://www.w3.org/2000/svg">
<rect width="30" height="30" rx="15" fill="#F1F3F5"/>
<path d="M10.3601 20.3462C9.95341 20.3462 9.57341 20.2062 9.30007 19.9462C8.95341 19.6195 8.78674 19.1262 8.84674 18.5929L9.09341 16.4329C9.14007 16.0262 9.38674 15.4862 9.67341 15.1929L15.1467 9.39954C16.5134 7.95288 17.9401 7.91288 19.3867 9.27954C20.8334 10.6462 20.8734 12.0729 19.5067 13.5195L14.0334 19.3129C13.7534 19.6129 13.2334 19.8929 12.8267 19.9595L10.6801 20.3262C10.5667 20.3329 10.4667 20.3462 10.3601 20.3462ZM17.2867 9.27288C16.7734 9.27288 16.3267 9.59288 15.8734 10.0729L10.4001 15.8729C10.2667 16.0129 10.1134 16.3462 10.0867 16.5395L9.84007 18.6995C9.81341 18.9195 9.86674 19.0995 9.98674 19.2129C10.1067 19.3262 10.2867 19.3662 10.5067 19.3329L12.6534 18.9662C12.8467 18.9329 13.1667 18.7595 13.3001 18.6195L18.7734 12.8262C19.6001 11.9462 19.9001 11.1329 18.6934 9.99954C18.1601 9.48621 17.7001 9.27288 17.2867 9.27288Z" fill="#535454"/>
<path d="M18.2267 14.6332C18.2134 14.6332 18.1934 14.6332 18.18 14.6332C16.1 14.4266 14.4267 12.8466 14.1067 10.7799C14.0667 10.5066 14.2534 10.2532 14.5267 10.2066C14.8 10.1666 15.0534 10.3532 15.1 10.6266C15.3534 12.2399 16.66 13.4799 18.2867 13.6399C18.56 13.6666 18.76 13.9132 18.7334 14.1866C18.7 14.4399 18.48 14.6332 18.2267 14.6332Z" fill="#535454"/>
<path d="M20.6667 22.4995H8.66675C8.39341 22.4995 8.16675 22.2728 8.16675 21.9995C8.16675 21.7262 8.39341 21.4995 8.66675 21.4995H20.6667C20.9401 21.4995 21.1667 21.7262 21.1667 21.9995C21.1667 22.2728 20.9401 22.4995 20.6667 22.4995Z" fill="#535454"/>
</svg>
