<svg width="15" height="13" viewBox="0 0 15 13" fill="none" xmlns="http://www.w3.org/2000/svg">
<path d="M10.861 11.6378C10.7634 11.8068 10.623 11.9472 10.454 12.0448C10.2849 12.1424 10.0932 12.1938 9.898 12.1938H2.112C1.81716 12.1935 1.53448 12.0763 1.326 11.8678C1.11752 11.6593 1.00027 11.3766 1 11.0818C1 9.3468 2.459 7.8818 4.475 7.3738C3.81027 7.03066 3.28012 6.47411 2.96965 5.79351C2.65918 5.11291 2.5864 4.34773 2.763 3.6208C2.93941 2.8939 3.35492 2.24735 3.94284 1.78492C4.53076 1.32249 5.25701 1.071 6.005 1.0708C6.75317 1.07077 7.47964 1.32216 8.06776 1.78461C8.65589 2.24706 9.07155 2.89374 9.248 3.6208C9.4246 4.34773 9.35182 5.11291 9.04135 5.79351C8.73088 6.47411 8.20073 7.03066 7.536 7.3738C9.553 7.8738 11.011 9.3458 11.011 11.0818C11.0116 11.2771 10.9601 11.469 10.862 11.6378H10.861Z" stroke="white" stroke-width="1.2"/>
<path d="M10.33 6.16797H14.043" stroke="white" stroke-width="1.2" stroke-linecap="round"/>
<path d="M12.187 4.31201V8.02501" stroke="white" stroke-width="1.2" stroke-linecap="round"/>
</svg>
