<svg width="81" height="18" viewBox="0 0 81 18" fill="none" xmlns="http://www.w3.org/2000/svg">
<path d="M9.04379 2.51569L8.67521 4.94569H4.28294L3.88364 7.66369H7.17016L6.80158 10.0037H3.51506L2.74718 15.1517H0.121033L2.02537 2.51569H9.04379Z" fill="black"/>
<path d="M19.1233 12.9197H15.0996L14.1167 15.1517H11.3677L17.1729 2.51569H20.2137L22.2102 15.1517H19.4304L19.1233 12.9197ZM18.8161 10.5797L18.1865 5.89969L16.1286 10.5797H18.8161Z" fill="black"/>
<path d="M26.2188 15.2777C25.0516 15.2777 24.0995 14.9837 23.3623 14.3957C22.6354 13.7957 22.2719 12.9497 22.2719 11.8577C22.2719 11.7497 22.2822 11.5877 22.3026 11.3717H25.0363C25.0056 11.8277 25.0977 12.1877 25.3127 12.4517C25.5277 12.7157 25.8554 12.8477 26.2956 12.8477C26.6949 12.8477 27.0072 12.7457 27.2324 12.5417C27.4679 12.3377 27.5856 12.0497 27.5856 11.6777C27.5856 11.2937 27.4372 10.9817 27.1403 10.7417C26.8536 10.5017 26.4031 10.2317 25.7888 9.93169C25.195 9.64369 24.7087 9.37369 24.3298 9.12169C23.9613 8.85769 23.6388 8.50369 23.3623 8.05969C23.0859 7.61569 22.9477 7.05769 22.9477 6.38569C22.9374 5.55769 23.1115 4.83769 23.4698 4.22569C23.8282 3.61369 24.3247 3.14569 24.9595 2.82169C25.5943 2.49769 26.3212 2.33569 27.1403 2.33569C27.8774 2.33569 28.5327 2.47369 29.106 2.74969C29.6794 3.01369 30.1248 3.40369 30.4422 3.91969C30.7595 4.42369 30.9182 5.02369 30.9182 5.71969C30.9182 5.89969 30.9131 6.03169 30.9029 6.11569H28.1078C28.118 6.06769 28.1232 5.99569 28.1232 5.89969C28.1232 5.56369 28.0208 5.29369 27.816 5.08969C27.6215 4.87369 27.3502 4.76569 27.0021 4.76569C26.6335 4.76569 26.3314 4.87369 26.096 5.08969C25.8707 5.29369 25.7581 5.57569 25.7581 5.93569C25.7581 6.29569 25.9014 6.60169 26.1881 6.85369C26.4748 7.09369 26.9202 7.37569 27.5242 7.69969C28.1283 8.02369 28.6197 8.32369 28.9985 8.59969C29.3876 8.87569 29.7204 9.24769 29.9968 9.71569C30.2732 10.1717 30.4114 10.7357 30.4114 11.4077C30.4114 12.1517 30.2425 12.8177 29.9046 13.4057C29.5668 13.9937 29.0805 14.4557 28.4457 14.7917C27.8109 15.1157 27.0686 15.2777 26.2188 15.2777Z" fill="black"/>
<path d="M41.6532 2.51569L39.7488 15.1517H37.1227L37.9059 9.91369H33.8208L33.0376 15.1517H30.4114L32.3158 2.51569H34.9419L34.1894 7.48369H38.2745L39.027 2.51569H41.6532Z" fill="black"/>
<path d="M51.0233 15.2777C49.8561 15.2777 48.904 14.9837 48.1668 14.3957C47.4399 13.7957 47.0764 12.9497 47.0764 11.8577C47.0764 11.7497 47.0866 11.5877 47.1071 11.3717H49.8408C49.8101 11.8277 49.9022 12.1877 50.1172 12.4517C50.3322 12.7157 50.6598 12.8477 51.1001 12.8477C51.4994 12.8477 51.8117 12.7457 52.0369 12.5417C52.2724 12.3377 52.3901 12.0497 52.3901 11.6777C52.3901 11.2937 52.2417 10.9817 51.9448 10.7417C51.6581 10.5017 51.2076 10.2317 50.5933 9.93169C49.9995 9.64369 49.5131 9.37369 49.1343 9.12169C48.7657 8.85769 48.4432 8.50369 48.1668 8.05969C47.8904 7.61569 47.7521 7.05769 47.7521 6.38569C47.7419 5.55769 47.9159 4.83769 48.2743 4.22569C48.6326 3.61369 49.1292 3.14569 49.764 2.82169C50.3988 2.49769 51.1257 2.33569 51.9448 2.33569C52.6819 2.33569 53.3372 2.47369 53.9105 2.74969C54.4839 3.01369 54.9292 3.40369 55.2466 3.91969C55.564 4.42369 55.7227 5.02369 55.7227 5.71969C55.7227 5.89969 55.7176 6.03169 55.7074 6.11569H52.9123C52.9225 6.06769 52.9276 5.99569 52.9276 5.89969C52.9276 5.56369 52.8253 5.29369 52.6205 5.08969C52.426 4.87369 52.1546 4.76569 51.8065 4.76569C51.438 4.76569 51.1359 4.87369 50.9004 5.08969C50.6752 5.29369 50.5626 5.57569 50.5626 5.93569C50.5626 6.29569 50.7059 6.60169 50.9926 6.85369C51.2793 7.09369 51.7246 7.37569 52.3287 7.69969C52.9328 8.02369 53.4242 8.32369 53.803 8.59969C54.1921 8.87569 54.5248 9.24769 54.8013 9.71569C55.0777 10.1717 55.2159 10.7357 55.2159 11.4077C55.2159 12.1517 55.047 12.8177 54.7091 13.4057C54.3713 13.9937 53.8849 14.4557 53.2501 14.7917C52.6154 15.1157 51.8731 15.2777 51.0233 15.2777Z" fill="black"/>
<path d="M62.3412 12.9197H58.3175L57.3346 15.1517H54.5856L60.3908 2.51569H63.4315L65.428 15.1517H62.6483L62.3412 12.9197ZM62.034 10.5797L61.4044 5.89969L59.3464 10.5797H62.034Z" fill="black"/>
<path d="M68.5946 12.8117H72.0347L71.6815 15.1517H65.6152L67.5196 2.51569H70.1457L68.5946 12.8117Z" fill="black"/>
<path d="M76.096 4.94569L75.7121 7.57369H79.229L78.8757 9.89569H75.3588L74.9288 12.7217H78.9064L78.5379 15.1517H71.9341L73.8384 2.51569H80.4422L80.0736 4.94569H76.096Z" fill="black"/>
<path d="M12.3005 0L11.2348 6.94989L14.2129 6.95831L9.35478 17.3277L10.5117 10.0132L7.51889 10.0216L12.3005 0Z" fill="#F7D92E"/>
</svg>
