<svg width="62" height="62" viewBox="0 0 62 62" fill="none" xmlns="http://www.w3.org/2000/svg">
<path fill-rule="evenodd" clip-rule="evenodd" d="M31 59.4163C31 59.4163 54.25 43.9163 54.25 25.833C54.25 19.6667 51.8004 13.753 47.4402 9.39277C43.08 5.03255 37.1663 2.58301 31 2.58301C24.8337 2.58301 18.92 5.03255 14.5598 9.39277C10.1995 13.753 7.75 19.6667 7.75 25.833C7.75 43.9163 31 59.4163 31 59.4163ZM38.75 25.833C38.75 30.1132 35.2802 33.583 31 33.583C26.7198 33.583 23.25 30.1132 23.25 25.833C23.25 21.5528 26.7198 18.083 31 18.083C35.2802 18.083 38.75 21.5528 38.75 25.833Z" fill="#DC4981"/>
</svg>
