<svg width="28" height="29" viewBox="0 0 28 29" fill="none" xmlns="http://www.w3.org/2000/svg">
<path d="M3.35334 11.2415C3.52852 9.17043 5.26066 7.57861 7.33911 7.57861H20.661C22.7394 7.57861 24.4716 9.17042 24.6467 11.2415L25.6332 22.9033C25.8306 25.2371 23.9895 27.2404 21.6474 27.2404H6.35267C4.01053 27.2404 2.16949 25.2371 2.3669 22.9033L3.35334 11.2415Z" fill="white" stroke="#DC4981" stroke-width="3"/>
<path d="M19.6275 18.8462L20.6262 20.9912L23.0129 21.8888L20.6262 22.7863L19.6275 24.9314L18.6288 22.7863L16.2421 21.8888L18.6288 20.9912L19.6275 18.8462Z" fill="#FAE62F"/>
<path d="M18.6154 11.6417V6.61539C18.6154 4.06638 16.549 2 14 2V2C11.451 2 9.38461 4.06638 9.38461 6.61539V11.6417" stroke="#DC4981" stroke-width="3" stroke-linecap="round"/>
</svg>
