<svg width="36" height="36" viewBox="0 0 36 36" fill="none" xmlns="http://www.w3.org/2000/svg">
<path fill-rule="evenodd" clip-rule="evenodd" d="M18 29.1315C18 29.1688 17.9793 29.2029 17.9463 29.2202L7.05462 34.9064C6.98122 34.9447 6.89571 34.8824 6.9098 34.8008L8.991 22.7508C8.99663 22.7182 8.98578 22.6849 8.96201 22.6619L0.146412 14.1286C0.0867098 14.0708 0.119442 13.9696 0.201681 13.9577L12.3858 12.1996C12.4183 12.1949 12.4464 12.1745 12.461 12.1451L17.8104 1.3814C17.8575 1.28679 18 1.32025 18 1.42591V29.1315Z" fill="#FFBA49"/>
<path fill-rule="evenodd" clip-rule="evenodd" d="M18 29.1921L7.77155 34.5321C7.40454 34.7237 6.97698 34.4118 7.04745 34.0038L9 22.6987L0.73206 14.6955C0.433551 14.4065 0.597212 13.9007 1.00841 13.8413L12.4377 12.1921L17.5522 1.90094C17.7361 1.53097 18.2639 1.53097 18.4478 1.90094L23.5623 12.1921L34.9916 13.8413C35.4028 13.9007 35.5664 14.4065 35.2679 14.6955L27 22.6987L28.9526 34.0038C29.023 34.4118 28.5955 34.7237 28.2285 34.5321L18 29.1921Z" stroke="#FFBA49"/>
</svg>
