<svg width="32" height="32" viewBox="0 0 32 32" fill="none" xmlns="http://www.w3.org/2000/svg">
<path d="M14.9095 7.13788L16 8.29244L17.0905 7.13788C18.2691 5.89001 19.9032 5.19238 21.641 5.19238C25.1221 5.19238 28.0385 8.10958 28.0385 11.8017C28.0385 13.3587 27.5352 14.8391 26.6083 15.984L16.4943 26.582L16.467 26.6107L16.4412 26.6407C16.3665 26.7277 16.2401 26.8078 16 26.8078C15.9156 26.8078 15.8163 26.7893 15.7256 26.7514C15.6362 26.714 15.5841 26.6702 15.5588 26.6407L15.533 26.6107L15.5057 26.5821L5.44599 16.0393C4.46111 14.8344 3.96153 13.3525 3.96153 11.8017C3.96153 8.10958 6.87791 5.19238 10.359 5.19238C12.0967 5.19238 13.7309 5.89001 14.9095 7.13788Z" stroke="#DC4981" stroke-width="3"/>
</svg>
