<svg width="28" height="30" viewBox="0 0 28 30" fill="none" xmlns="http://www.w3.org/2000/svg">
<path d="M24.5 12.6665C24.5 20.8332 14 27.8332 14 27.8332C14 27.8332 3.5 20.8332 3.5 12.6665C3.5 9.88173 4.60625 7.21101 6.57538 5.24188C8.54451 3.27275 11.2152 2.1665 14 2.1665C16.7848 2.1665 19.4555 3.27275 21.4246 5.24188C23.3938 7.21101 24.5 9.88173 24.5 12.6665Z" stroke="#DC4981" stroke-width="3" stroke-linecap="round" stroke-linejoin="round"/>
<path d="M14 16.1665C15.933 16.1665 17.5 14.5995 17.5 12.6665C17.5 10.7335 15.933 9.1665 14 9.1665C12.067 9.1665 10.5 10.7335 10.5 12.6665C10.5 14.5995 12.067 16.1665 14 16.1665Z" stroke="#DC4981" stroke-width="3" stroke-linecap="round" stroke-linejoin="round"/>
</svg>
