<svg width="30" height="30" viewBox="0 0 30 30" fill="none" xmlns="http://www.w3.org/2000/svg">
<path d="M27.5278 12.8241L25.2966 10.9701L23.4955 9.47662L15.5653 2.85884C15.5115 2.80734 15.4578 2.78159 15.3771 2.73009C15.3771 2.73009 15.3502 2.73009 15.3502 2.70434C15.3502 2.70434 15.3234 2.70434 15.3234 2.67859H15.2965H15.2696C15.2696 2.67859 15.2696 2.67859 15.2427 2.67859H15.2158C15.2158 2.67859 15.2158 2.67859 15.1889 2.67859H15.1621C15.1621 2.67859 15.1621 2.67859 15.1352 2.67859H15.1083H15.0814C14.947 2.67859 14.7857 2.67859 14.6513 2.75584H14.6244H14.5975C14.5975 2.75584 14.5975 2.75584 14.5707 2.75584H14.5438C14.5438 2.75584 14.5169 2.75584 14.5169 2.78159C14.5169 2.78159 14.49 2.78159 14.49 2.80734L14.4631 2.83309L14.4362 2.85884L6.15656 9.70837L4.38234 11.1504L2.44683 12.8499C2.07048 13.1589 2.0436 13.6996 2.36618 14.0601C2.55436 14.2661 2.79629 14.3434 3.03823 14.3434C3.25329 14.3434 3.46835 14.2661 3.62964 14.1374L4.54363 13.3906V23.6134C4.54363 25.6477 6.10279 27.3214 8.03831 27.3214H22.017C23.9256 27.3214 25.5117 25.6477 25.5117 23.6134V13.3649L26.4257 14.1116C26.587 14.2404 26.802 14.3176 27.0171 14.3176C27.259 14.3176 27.5278 14.2146 27.6891 14.0344C27.9579 13.6739 27.9042 13.1331 27.5278 12.8241ZM9.5437 15.7081H9.08671C9.08671 14.6266 10.0007 13.7511 11.1297 13.7511C12.2588 13.7511 13.1728 14.6266 13.1728 15.7081H12.7158C12.7158 14.8841 12.0169 14.1889 11.1297 14.1889C10.2426 14.1889 9.5437 14.8841 9.5437 15.7081ZM14.9739 23.5362C12.5007 23.5362 10.9416 21.6822 11.0491 18.7467H18.9524C18.8987 21.7852 17.3933 23.5619 14.9739 23.5362ZM18.818 16.4806C17.8234 16.4806 17.0438 15.7081 17.0438 14.7811C17.0438 13.8284 17.8503 13.0816 18.818 13.0816C19.8127 13.0816 20.5922 13.8541 20.5922 14.7811C20.5922 15.7339 19.7858 16.4806 18.818 16.4806Z" fill="#D6D6D6"/>
</svg>
