<svg width="30" height="30" viewBox="0 0 30 30" fill="none" xmlns="http://www.w3.org/2000/svg">
<path d="M15 2.5C8.125 2.5 2.5 8.125 2.5 15C2.5 17.875 3.5 20.625 5.375 22.875L2.875 25.375C2.375 25.875 2.375 26.625 2.875 27.125C3.125 27.375 3.375 27.5 3.75 27.5H15C21.875 27.5 27.5 21.875 27.5 15C27.5 8.125 21.875 2.5 15 2.5ZM10 16.25C9.25 16.25 8.75 15.75 8.75 15C8.75 14.25 9.25 13.75 10 13.75C10.75 13.75 11.25 14.25 11.25 15C11.25 15.75 10.75 16.25 10 16.25ZM15 16.25C14.25 16.25 13.75 15.75 13.75 15C13.75 14.25 14.25 13.75 15 13.75C15.75 13.75 16.25 14.25 16.25 15C16.25 15.75 15.75 16.25 15 16.25ZM20 16.25C19.25 16.25 18.75 15.75 18.75 15C18.75 14.25 19.25 13.75 20 13.75C20.75 13.75 21.25 14.25 21.25 15C21.25 15.75 20.75 16.25 20 16.25Z" fill="#D6D6D6"/>
</svg>
