<svg width="30" height="30" viewBox="0 0 30 30" fill="none" xmlns="http://www.w3.org/2000/svg">
<path fill-rule="evenodd" clip-rule="evenodd" d="M6.37689 6.48983L6.55643 8.1745L7.60871 19.6069L7.60882 19.6156C7.63305 21.605 9.20752 23.2192 11.1673 23.2192H26.1705C26.5398 23.2192 26.831 22.9222 26.831 22.54C26.831 22.1579 26.5142 21.8346 26.1449 21.8346H11.1673C9.94655 21.8346 8.9554 20.8155 8.9554 19.5657V19.5233L7.87953 8.03413L7.69977 6.37373C7.57541 5.11014 7.16769 4.27388 6.66721 3.71408C6.16626 3.15376 5.55841 2.85487 5.00812 2.69119L2.95483 2.16435C2.62409 2.07006 2.26649 2.29383 2.16416 2.67192C2.07019 3.01912 2.29662 3.40701 2.65502 3.51118L4.68164 4.01142C5.21347 4.15506 5.5901 4.41977 5.87711 4.83216C6.16363 5.24385 6.32373 5.81238 6.37689 6.48983Z" fill="#D6D6D6"/>
<path fill-rule="evenodd" clip-rule="evenodd" d="M10.705 19.7292C10.705 19.7292 10.7593 20.3296 11.4078 20.4518H23.8522C25.692 20.4518 27.2037 18.9303 27.2293 17.0094L27.2294 17.0008L27.8569 9.7485V9.69932C27.8824 7.8687 26.3755 6.29126 24.5072 6.29126H10.1532C9.76027 6.29126 9.45045 6.60728 9.45045 7.01388L10.705 19.7292Z" fill="#D6D6D6"/>
<path d="M19.9933 2.50071C20.1889 2.30353 20.5077 2.30353 20.7033 2.50071L22.598 4.41089C22.911 4.72646 22.6875 5.26301 22.243 5.26301H18.4536C18.0091 5.26301 17.7856 4.72646 18.0986 4.41089L19.9933 2.50071Z" fill="#D6D6D6"/>
<path fill-rule="evenodd" clip-rule="evenodd" d="M14.1936 25.6461C14.1936 26.8832 13.219 27.8571 12.0393 27.8571C10.8339 27.8571 9.88501 26.8569 9.88501 25.6461C9.88501 24.409 10.8596 23.4351 12.0393 23.4351C13.219 23.4351 14.168 24.409 14.1936 25.6461ZM22.0414 25.6461C22.0414 24.409 23.016 23.4351 24.1957 23.4351C25.3755 23.4351 26.35 24.409 26.35 25.6461C26.35 26.8832 25.3755 27.8571 24.1957 27.8571C22.9903 27.8571 22.0414 26.8569 22.0414 25.6461Z" fill="#D6D6D6"/>
</svg>
