<svg width="30" height="30" viewBox="0 0 30 30" fill="none" xmlns="http://www.w3.org/2000/svg">
<path d="M8.57945 9.61968C8.61292 6.08864 11.4912 3.21423 15.0055 3.21423C18.5465 3.21423 21.465 6.15565 21.4315 9.68668C21.398 13.2177 18.4929 16.0988 14.9988 16.0787C11.4511 16.0519 8.54598 13.1373 8.57945 9.61968Z" fill="#D6D6D6"/>
<path d="M26.7731 26.7856C14.36 26.7856 21.5881 26.7655 3.23772 26.7655C3.23103 26.732 3.21764 26.6918 3.21764 26.6516C3.23103 25.5795 3.17748 24.5008 3.27119 23.4355C3.41176 21.7403 4.128 20.2864 5.35296 19.1004C6.73188 17.7738 8.39863 17.144 10.3064 17.144C13.4324 17.144 16.5651 17.1373 19.6911 17.144C22.1209 17.1507 24.0755 18.1289 25.508 20.0988C26.3715 21.2847 26.7597 22.6381 26.7798 24.0988C26.7932 24.943 26.7798 25.7872 26.7798 26.6382C26.7932 26.6851 26.7798 26.7253 26.7731 26.7856Z" fill="#D6D6D6"/>
</svg>
