<svg width="30" height="30" viewBox="0 0 30 30" fill="none" xmlns="http://www.w3.org/2000/svg">
<g clip-path="url(#clip0_930_1966)">
<path d="M29.8875 14.475C27.425 9.1375 21.875 3.75 15 3.75C8.125 3.75 2.575 9.1375 0.1125 14.475C0.0383418 14.6401 0 14.819 0 15C0 15.181 0.0383418 15.3599 0.1125 15.525C2.575 20.8625 8.125 26.25 15 26.25C21.875 26.25 27.425 20.8625 29.8875 15.525C29.9617 15.3599 30 15.181 30 15C30 14.819 29.9617 14.6401 29.8875 14.475V14.475ZM15 21.25C13.7639 21.25 12.5555 20.8834 11.5277 20.1967C10.4999 19.5099 9.6988 18.5338 9.22575 17.3918C8.75271 16.2497 8.62893 14.9931 8.87009 13.7807C9.11125 12.5683 9.7065 11.4547 10.5806 10.5806C11.4547 9.7065 12.5683 9.11125 13.7807 8.87009C14.9931 8.62893 16.2497 8.75271 17.3918 9.22575C18.5338 9.6988 19.5099 10.4999 20.1967 11.5277C20.8834 12.5555 21.25 13.7639 21.25 15C21.248 16.657 20.5889 18.2456 19.4172 19.4172C18.2456 20.5889 16.657 21.248 15 21.25V21.25Z" fill="#D6D6D6"/>
<path d="M18.2143 15.0001L13.3929 17.7837L13.3929 12.2164L18.2143 15.0001Z" fill="#D9D9D9"/>
</g>
<defs>
<clipPath id="clip0_930_1966">
<rect width="30" height="30" fill="white"/>
</clipPath>
</defs>
</svg>
