<svg width="100" height="100" viewBox="0 0 100 100" fill="none" xmlns="http://www.w3.org/2000/svg">
<circle opacity="0.1" cx="50" cy="50" r="50" fill="#DC4981"/>
<g clip-path="url(#clip0_155_1664)">
<path d="M61.9436 34.2023C62.2515 34.2023 62.5017 34.2023 62.7615 34.2023C68.9485 34.2023 75.1451 34.2023 81.3321 34.2119C81.6496 34.2119 82.0152 34.2793 82.2846 34.4333C82.7176 34.6642 82.7272 35.126 82.7272 35.5783C82.7176 39.5522 82.7272 43.5357 82.7272 47.5096C82.7272 49.1261 82.7272 50.7522 82.7272 52.3687C82.7272 53.3117 82.3616 53.6773 81.4186 53.6773C75.1451 53.6773 68.8811 53.6773 62.6075 53.6773C62.4151 53.6773 62.2227 53.6773 61.9436 53.6773C61.9436 53.8986 61.9436 54.1007 61.9436 54.3028C61.9436 59.0464 61.9533 63.7997 61.934 68.5434C61.9244 70.6603 60.5773 72.2864 58.547 72.6713C58.2776 72.7194 58.0082 72.729 57.7292 72.729C52.312 72.729 46.8851 72.7386 41.4679 72.729C39.3414 72.7194 37.7057 71.3723 37.3304 69.3613C37.2727 69.0534 37.2727 68.7262 37.2727 68.3991C37.2727 56.1117 37.2727 43.834 37.2727 31.5466C37.2727 29.0257 39.0143 27.2841 41.5353 27.2841C46.9044 27.2744 52.2831 27.2744 57.6522 27.2841C60.2117 27.2841 61.934 29.016 61.9436 31.5755C61.9436 32.4222 61.9436 33.269 61.9436 34.2023ZM80.543 51.522C80.543 46.4223 80.543 41.4189 80.543 36.3865C69.1409 36.3865 57.7677 36.3865 46.3944 36.3865C46.3944 41.4381 46.3944 46.4608 46.3944 51.522C46.6061 51.522 46.7793 51.522 46.9525 51.522C48.3765 51.522 49.8102 51.5124 51.2343 51.522C52.0137 51.522 52.4082 51.9358 52.4178 52.7151C52.4178 52.9749 52.4178 53.2251 52.4178 53.4849C52.4178 54.2932 52.4178 55.1014 52.4178 56.0155C52.6199 55.8231 52.7353 55.7268 52.8508 55.621C54.0151 54.4567 55.1986 53.3021 56.3436 52.1089C56.7573 51.6856 57.1903 51.5028 57.7869 51.5028C65.1574 51.522 72.5375 51.5124 79.908 51.5124C80.1004 51.522 80.3025 51.522 80.543 51.522ZM59.7883 34.2023C59.7883 33.3075 59.7883 32.48 59.7883 31.6525C59.7883 30.2092 59.0089 29.4298 57.556 29.4298C52.2446 29.4298 46.9429 29.4298 41.6315 29.4298C40.2074 29.4298 39.428 30.2092 39.428 31.6332C39.428 42.1213 39.428 52.6093 39.428 63.0877C39.428 63.2609 39.4377 63.4341 39.4473 63.6073C46.2405 63.6073 52.9951 63.6073 59.7594 63.6073C59.7594 60.2877 59.7594 57.0066 59.7594 53.6773C59.2879 53.6773 58.8453 53.6966 58.4027 53.6677C58.0178 53.6389 57.7484 53.7639 57.479 54.043C55.747 55.8038 53.9862 57.5358 52.2446 59.287C51.8693 59.6623 51.4652 59.8451 50.9456 59.6623C50.4742 59.4891 50.2625 59.1042 50.2625 58.4595C50.2625 57.0451 50.2625 55.6402 50.2625 54.2258C50.2625 54.0526 50.2625 53.889 50.2625 53.6677C50.0219 53.6677 49.8487 53.6677 49.6755 53.6677C48.2803 53.6677 46.8851 53.6677 45.4899 53.6677C44.5758 53.6677 44.2006 53.2925 44.2006 52.388C44.2006 50.8004 44.2006 49.2127 44.2006 47.6251C44.2006 43.6127 44.2006 39.6099 44.2006 35.5975C44.2006 34.5295 44.5373 34.2023 45.615 34.1927C45.7593 34.1927 45.9037 34.1927 46.048 34.1927C50.4453 34.1927 54.8329 34.1927 59.2302 34.1927C59.3842 34.2023 59.5477 34.2023 59.7883 34.2023ZM39.4184 65.8204C39.4184 66.7441 39.4088 67.6004 39.4184 68.4664C39.428 69.7558 40.2363 70.564 41.5256 70.5737C42.459 70.5833 43.3827 70.5737 44.316 70.5737C48.771 70.5737 53.2261 70.5737 57.6811 70.5737C58.6914 70.5737 59.567 70.0541 59.6632 69.1688C59.7883 68.0719 59.6921 66.9461 59.6921 65.8204C52.9759 65.8204 46.2308 65.8204 39.4184 65.8204Z" fill="#DC4981"/>
<path d="M74.9237 45.8144C74.9237 46.4014 74.9334 46.8825 74.9237 47.3636C74.9045 48.0275 74.4715 48.4701 73.8461 48.4701C73.2303 48.4701 72.7877 48.0179 72.778 47.3539C72.7684 46.8728 72.778 46.3917 72.778 45.824C72.2681 46.1127 71.8158 46.3821 71.354 46.6131C70.9498 46.8247 70.5457 46.7862 70.1801 46.5072C69.8337 46.2378 69.6797 45.8433 69.8241 45.4392C69.9203 45.1601 70.1416 44.8907 70.3821 44.7079C70.7574 44.4192 71.2 44.2172 71.6811 43.9381C71.2289 43.6687 70.8344 43.4474 70.4399 43.2068C69.8048 42.8316 69.6028 42.2158 69.9203 41.6673C70.2378 41.1092 70.8632 40.9745 71.5079 41.3305C71.8832 41.5422 72.2584 41.7539 72.6433 41.9656C72.6626 41.9752 72.7011 41.9656 72.7877 41.956C72.7877 41.4845 72.778 41.013 72.7877 40.5319C72.7973 39.8488 73.2206 39.4061 73.8365 39.3965C74.4811 39.3869 74.9237 39.8295 74.9334 40.5223C74.943 40.9938 74.9334 41.4749 74.9334 42.0426C75.4048 41.7828 75.7994 41.5519 76.1939 41.3305C76.8385 40.9649 77.464 41.09 77.7815 41.6481C78.099 42.1965 77.9066 42.8123 77.2811 43.1972C76.8963 43.4282 76.5114 43.6495 76.0303 43.9285C76.4729 44.1883 76.8963 44.3807 77.2523 44.6502C77.5121 44.8522 77.7719 45.1409 77.8873 45.4392C78.0413 45.8337 77.8777 46.2282 77.5217 46.5072C77.1561 46.7862 76.7519 46.8151 76.3478 46.6034C75.886 46.3821 75.453 46.1127 74.9237 45.8144Z" fill="#DC4981"/>
<path d="M61.2894 43.9382C60.8275 43.6687 60.433 43.4378 60.0385 43.2069C59.4131 42.8316 59.211 42.2062 59.5285 41.6674C59.8557 41.1093 60.4715 40.9842 61.1162 41.3402C61.5107 41.5519 61.8956 41.7828 62.3767 42.0619C62.3767 41.5038 62.3767 41.0227 62.3767 40.5416C62.3767 40.0797 62.5595 39.7333 62.9636 39.5216C63.6468 39.1656 64.4646 39.6275 64.5127 40.4069C64.5416 40.9265 64.5224 41.4557 64.5224 42.0811C64.9842 41.8117 65.3691 41.5904 65.7444 41.3691C66.4179 40.9842 67.053 41.1093 67.3801 41.677C67.7073 42.2447 67.4956 42.8509 66.8317 43.2454C66.466 43.4667 66.0811 43.6784 65.6385 43.9382C66.1196 44.2268 66.5622 44.4674 66.9856 44.7368C67.5341 45.0832 67.688 45.7375 67.3705 46.2378C67.0626 46.7286 66.4468 46.8825 65.8887 46.5938C65.6097 46.4399 65.3306 46.2763 65.0516 46.1127C64.9073 46.0261 64.7533 45.9492 64.5224 45.8337C64.5224 46.3725 64.532 46.844 64.5224 47.3251C64.5031 48.0275 64.0798 48.4798 63.4447 48.4701C62.8096 48.4701 62.3959 48.0179 62.3863 47.3059C62.3767 46.844 62.3863 46.3822 62.3863 45.8145C61.934 46.0743 61.5588 46.2956 61.1739 46.5072C60.4907 46.8921 59.8749 46.7863 59.5381 46.2186C59.2014 45.6509 59.4227 45.0351 60.1155 44.6213C60.4811 44.4096 60.8467 44.198 61.2894 43.9382Z" fill="#DC4981"/>
<path d="M51.9944 45.8145C51.5037 46.0935 51.0996 46.3341 50.6954 46.5554C50.07 46.8921 49.4638 46.7574 49.1367 46.2186C48.8095 45.6798 49.0116 45.0447 49.637 44.6694C50.0315 44.4289 50.426 44.2076 50.8879 43.9382C50.4164 43.6591 50.0026 43.4282 49.5985 43.178C49.002 42.8124 48.8191 42.1966 49.127 41.6577C49.4446 41.1189 50.0604 40.9746 50.6762 41.3113C51.0803 41.5327 51.4844 41.7636 51.9848 42.0522C51.9848 41.4653 51.9655 40.9457 51.9848 40.4357C52.0233 39.589 52.947 39.079 53.6109 39.5698C53.8707 39.7622 54.0439 40.1567 54.1016 40.4839C54.1882 40.965 54.1209 41.4653 54.1209 42.0426C54.5924 41.7732 54.9869 41.5423 55.391 41.321C56.0453 40.9553 56.6515 41.09 56.9786 41.6481C57.2962 42.1966 57.0941 42.8124 56.4687 43.1973C56.0838 43.4282 55.6989 43.6495 55.2274 43.9189C55.67 44.1787 56.0934 44.3712 56.4494 44.6502C56.7092 44.8523 56.9594 45.1409 57.0749 45.4488C57.2288 45.853 57.0556 46.2378 56.6996 46.5073C56.334 46.7863 55.9298 46.8055 55.5257 46.5939C55.0735 46.3629 54.6405 46.0935 54.1209 45.8048C54.1209 46.3629 54.1305 46.8344 54.1209 47.3155C54.1016 48.0179 53.6783 48.4701 53.0336 48.4605C52.3985 48.4605 51.9848 47.9987 51.9752 47.2866C51.9848 46.844 51.9944 46.3822 51.9944 45.8145Z" fill="#DC4981"/>
<path d="M49.6274 32.8919C48.925 32.8919 48.213 32.9016 47.5106 32.8919C46.8178 32.8823 46.3463 32.4205 46.3559 31.8047C46.3655 31.2081 46.8274 30.7559 47.4913 30.7462C48.8865 30.7366 50.2817 30.7366 51.6769 30.7462C52.3793 30.7559 52.8508 31.1888 52.8508 31.8047C52.8604 32.4205 52.3793 32.8727 51.6865 32.8823C51.0034 32.9016 50.3106 32.8919 49.6274 32.8919Z" fill="#DC4981"/>
<path d="M49.6082 67.108C50.301 67.108 50.9841 67.0984 51.6769 67.108C52.3793 67.1177 52.8508 67.5507 52.8604 68.1665C52.8701 68.8015 52.389 69.2441 51.6577 69.2538C50.2817 69.2634 48.9058 69.2634 47.5202 69.2538C46.837 69.2441 46.3559 68.7823 46.3656 68.1665C46.3752 67.5603 46.837 67.1177 47.501 67.108C48.1937 67.0984 48.8962 67.108 49.6082 67.108Z" fill="#DC4981"/>
</g>
<defs>
<clipPath id="clip0_155_1664">
<rect width="45.4545" height="45.4545" fill="white" transform="translate(37.2727 27.2727)"/>
</clipPath>
</defs>
</svg>
