<svg width="17" height="17" viewBox="0 0 17 17" fill="none" xmlns="http://www.w3.org/2000/svg">
<path d="M4.36007 13.3462C3.95341 13.3462 3.57341 13.2062 3.30007 12.9462C2.95341 12.6195 2.78674 12.1262 2.84674 11.5929L3.09341 9.43288C3.14007 9.02621 3.38674 8.48621 3.67341 8.19288L9.14674 2.39954C10.5134 0.952878 11.9401 0.912878 13.3867 2.27954C14.8334 3.64621 14.8734 5.07288 13.5067 6.51954L8.03341 12.3129C7.75341 12.6129 7.23341 12.8929 6.82674 12.9595L4.68007 13.3262C4.56674 13.3329 4.46674 13.3462 4.36007 13.3462ZM11.2867 2.27288C10.7734 2.27288 10.3267 2.59288 9.87341 3.07288L4.40007 8.87288C4.26674 9.01288 4.11341 9.34621 4.08674 9.53955L3.84007 11.6995C3.81341 11.9195 3.86674 12.0995 3.98674 12.2129C4.10674 12.3262 4.28674 12.3662 4.50674 12.3329L6.65341 11.9662C6.84674 11.9329 7.16674 11.7595 7.30007 11.6195L12.7734 5.82621C13.6001 4.94621 13.9001 4.13288 12.6934 2.99954C12.1601 2.48621 11.7001 2.27288 11.2867 2.27288Z" fill="#535454"/>
<path d="M12.2267 7.63323C12.2134 7.63323 12.1934 7.63323 12.18 7.63323C10.1 7.42657 8.42671 5.84657 8.10671 3.7799C8.06671 3.50657 8.25338 3.25323 8.52671 3.20657C8.80005 3.16657 9.05338 3.35323 9.10005 3.62657C9.35338 5.2399 10.66 6.4799 12.2867 6.6399C12.56 6.66657 12.76 6.91323 12.7334 7.18657C12.7 7.4399 12.48 7.63323 12.2267 7.63323Z" fill="#535454"/>
<path d="M14.6667 15.4995H2.66675C2.39341 15.4995 2.16675 15.2728 2.16675 14.9995C2.16675 14.7262 2.39341 14.4995 2.66675 14.4995H14.6667C14.9401 14.4995 15.1667 14.7262 15.1667 14.9995C15.1667 15.2728 14.9401 15.4995 14.6667 15.4995Z" fill="#535454"/>
</svg>
