<svg width="24" height="24" viewBox="0 0 24 24" fill="none" xmlns="http://www.w3.org/2000/svg">
<path d="M8.67388 16.8894L17.6441 7.89819C17.7455 7.79699 17.8025 7.65969 17.8026 7.51648C17.8027 7.37327 17.7459 7.23592 17.6446 7.13458C17.5434 7.03325 17.4061 6.97625 17.2628 6.97615C17.1196 6.97605 16.9822 7.03281 16.8808 7.134L7.89675 16.1295C7.84647 16.1796 7.80659 16.2392 7.77937 16.3047C7.75215 16.3703 7.73811 16.4406 7.73811 16.5116C7.73811 16.5826 7.75215 16.6528 7.77937 16.7184C7.80659 16.784 7.84647 16.8435 7.89675 16.8937C8.0021 16.9924 8.142 17.0459 8.28639 17.0426C8.43001 17.0409 8.56793 16.9863 8.67388 16.8894ZM6.6831 8.44203V8.41117C6.68719 7.75257 6.95228 7.12249 7.42027 6.65895C7.88827 6.19541 8.52101 5.93625 9.17979 5.93829C9.83858 5.94033 10.4697 6.20343 10.9348 6.66986C11.3999 7.13629 11.6611 7.76802 11.6611 8.42663C11.6611 9.08524 11.3999 9.71697 10.9348 10.1834C10.4697 10.6498 9.83858 10.9129 9.17979 10.9149C8.52101 10.917 7.88827 10.6579 7.42027 10.1943C6.95228 9.73078 6.68719 9.10063 6.6831 8.44203ZM22.5008 10.0385C22.9958 11.2379 23.9997 12.0032 23.9997 13.5028C23.9997 15.8868 22.3358 16.8468 20.8975 17.8366C20.6569 20.5059 19.2932 22.7856 16.6392 22.7856H16.5646C15.7186 22.7 14.881 22.5444 14.0607 22.3205C13.0866 22.7995 12.5469 23.52 11.5877 23.8201C11.2034 23.9352 10.8049 23.9957 10.4038 24C8.36515 24 7.09086 22.245 6.17638 20.8071C3.49362 20.5666 1.1845 19.217 1.1845 16.5031C1.28287 15.675 1.44845 14.8564 1.67956 14.0552C1.12227 13.2667 0.621356 12.4398 0.180596 11.5807C-0.671075 8.82202 1.67955 7.15637 3.17849 6.18254C3.37331 3.37811 4.93186 1.17395 7.67531 1.17395C8.05825 1.17142 8.44031 1.2114 8.81443 1.29315C9.19018 1.4212 9.57627 1.51664 9.96842 1.57839C10.6285 1.51879 11.7367 0.424703 12.4415 0.194814C12.8288 0.067851 13.2336 0.00208981 13.6413 0C15.7247 0 17.0288 1.85933 17.8996 3.1929C20.5834 3.40576 22.9032 4.85747 22.9032 7.49693C22.8391 8.35569 22.7035 9.20761 22.4976 10.0438L22.5008 10.0385Z" fill="url(#paint0_linear_58_785)"/>
<path d="M6.57451 8.44211V8.41125C6.57859 7.75265 6.84368 7.12257 7.31168 6.65903C7.77967 6.19549 8.41238 5.93632 9.07117 5.93837C9.72995 5.94041 10.3611 6.20351 10.8262 6.66994C11.2913 7.13637 11.5525 7.7681 11.5525 8.42671C11.5525 9.08532 11.2913 9.71705 10.8262 10.1835C10.3611 10.6499 9.72995 10.913 9.07117 10.915C8.41238 10.917 7.77967 10.6579 7.31168 10.1944C6.84368 9.73086 6.57859 9.1007 6.57451 8.44211Z" fill="#FFBA2A"/>
<path d="M13.675 15.5611V15.5303C13.6791 14.8717 13.9442 14.2416 14.4122 13.778C14.8802 13.3145 15.5129 13.0553 16.1717 13.0574C16.8305 13.0594 17.4616 13.3225 17.9267 13.789C18.3918 14.2554 18.653 14.8871 18.653 15.5457C18.653 16.2043 18.3918 16.8361 17.9267 17.3025C17.4616 17.7689 16.8305 18.032 16.1717 18.034C15.5129 18.0361 14.8802 17.7769 14.4122 17.3134C13.9442 16.8499 13.6791 16.2197 13.675 15.5611Z" fill="#FFAD03"/>
<defs>
<linearGradient id="paint0_linear_58_785" x1="18.7879" y1="5.31799" x2="20.2616" y2="6.92751" gradientUnits="userSpaceOnUse">
<stop stop-color="white"/>
<stop offset="1" stop-color="#F6F0D4"/>
</linearGradient>
</defs>
</svg>
