<svg width="25" height="24" viewBox="0 0 25 24" fill="none" xmlns="http://www.w3.org/2000/svg">
<path fill-rule="evenodd" clip-rule="evenodd" d="M21.9897 11.0001V9.00009C21.9897 7.39809 20.6919 6.1001 19.0903 6.1001C15.4403 6.1001 7.73967 6.1001 4.08977 6.1001C2.48807 6.1001 1.19037 7.39809 1.19037 9.00009C1.19037 11.6611 1.19037 16.3391 1.19037 19.0001C1.19037 20.6021 2.48807 21.9001 4.08977 21.9001C7.73967 21.9001 15.4403 21.9001 19.0903 21.9001C20.6919 21.9001 21.9897 20.6021 21.9897 19.0001C21.9897 18.0001 21.9897 17.0001 21.9897 17.0001C21.9897 16.5031 21.5869 16.1001 21.09 16.1001C20.5932 16.1001 20.1904 16.5031 20.1904 17.0001C20.1904 17.0001 20.1904 18.0001 20.1904 19.0001C20.1904 19.6081 19.6973 20.1001 19.0903 20.1001C15.4403 20.1001 7.73967 20.1001 4.08977 20.1001C3.48272 20.1001 2.98965 19.6081 2.98965 19.0001C2.98965 16.3391 2.98965 11.6611 2.98965 9.00009C2.98965 8.39209 3.48272 7.90009 4.08977 7.90009C7.73967 7.90009 15.4403 7.90009 19.0903 7.90009C19.6973 7.90009 20.1904 8.39209 20.1904 9.00009V11.0001C20.1904 11.4971 20.5932 11.9001 21.09 11.9001C21.5869 11.9001 21.9897 11.4971 21.9897 11.0001Z" fill="#4D1A2D"/>
<path fill-rule="evenodd" clip-rule="evenodd" d="M4.492 7.80499C4.492 7.80499 10.047 5.02799 13.598 3.25199C13.939 3.08199 14.344 3.1 14.668 3.3C14.993 3.501 15.19 3.85499 15.19 4.23599C15.19 5.65299 15.19 7 15.19 7H16.99C16.99 7 16.99 5.65299 16.99 4.23599C16.99 3.23099 16.47 2.29799 15.615 1.76899C14.76 1.24099 13.692 1.19299 12.793 1.64199C9.242 3.41799 3.68799 6.195 3.68799 6.195L4.492 7.80499Z" fill="#4D1A2D"/>
<path fill-rule="evenodd" clip-rule="evenodd" d="M22.99 13.0001C22.99 11.3981 21.692 10.1001 20.09 10.1001C19.183 10.1001 18.092 10.1001 17.09 10.1001C14.936 10.1001 13.19 11.8461 13.19 14.0001C13.19 16.1541 14.936 17.9001 17.09 17.9001C18.092 17.9001 19.183 17.9001 20.09 17.9001C21.692 17.9001 22.99 16.6021 22.99 15.0001V13.0001ZM21.19 13.0001C21.19 12.3921 20.698 11.9001 20.09 11.9001C19.183 11.9001 18.092 11.9001 17.09 11.9001C15.93 11.9001 14.99 12.8401 14.99 14.0001C14.99 15.1601 15.93 16.1001 17.09 16.1001C18.092 16.1001 19.183 16.1001 20.09 16.1001C20.698 16.1001 21.19 15.6081 21.19 15.0001V13.0001Z" fill="#4D1A2D"/>
<path d="M17.0985 15.0003C17.6509 15.0003 18.0986 14.5523 18.0986 13.9997C18.0986 13.447 17.6509 12.999 17.0985 12.999C16.5461 12.999 16.0983 13.447 16.0983 13.9997C16.0983 14.5523 16.5461 15.0003 17.0985 15.0003Z" fill="#4D1A2D"/>
</svg>
