<svg width="100" height="100" viewBox="0 0 100 100" fill="none" xmlns="http://www.w3.org/2000/svg">
<rect opacity="0.1" width="100" height="100" rx="50" fill="#DC4981"/>
<path d="M68 70C68 67.5048 67.5344 65.0341 66.6298 62.7289C65.7252 60.4236 64.3993 58.329 62.7278 56.5647C61.0563 54.8004 59.0719 53.4009 56.888 52.4461C54.7041 51.4913 52.3635 50.9999 49.9997 51C47.6359 51 45.2953 51.4914 43.1115 52.4462C40.9277 53.4011 38.9434 54.8006 37.272 56.5649C35.6005 58.3293 34.2747 60.4239 33.3701 62.729C32.4656 65.0342 32 67.5049 32 70" stroke="#DC4981" stroke-width="2.5"/>
<path d="M50 51C56.0751 51 61 46.0751 61 40C61 33.9249 56.0751 29 50 29C43.9249 29 39 33.9249 39 40C39 46.0751 43.9249 51 50 51Z" stroke="#DC4981" stroke-width="2.5"/>
<circle cx="84" cy="84" r="11.5" fill="#F1F1F1" stroke="white"/>
<path d="M87.2545 79.2375C87.301 79.2375 87.3414 79.2375 87.3798 79.2375C88.0469 79.2375 88.714 79.2355 89.3811 79.2375C90.1452 79.2415 90.7921 79.755 90.9599 80.4921C90.9862 80.6129 90.9963 80.7378 90.9963 80.8606C90.9983 83.0356 90.9983 85.2105 90.9963 87.3854C90.9963 88.2816 90.2766 88.9965 89.3771 88.9985C85.793 89.0005 82.2089 89.0005 78.6228 88.9985C77.7232 88.9985 77.0015 88.2856 77.0015 87.3894C76.9995 85.2145 76.9995 83.0396 77.0015 80.8647C77.0056 79.9464 77.7191 79.2395 78.6389 79.2375C79.2959 79.2355 79.9529 79.2375 80.6099 79.2375C80.6503 79.2375 80.6887 79.2375 80.7312 79.2375C80.7453 79.1428 80.7534 79.0562 80.7736 78.9717C80.907 78.4098 81.4084 78.005 81.9885 78.003C83.3288 77.999 84.671 77.999 86.0113 78.003C86.64 78.005 87.1696 78.4964 87.2383 79.1207C87.2424 79.1569 87.2484 79.1932 87.2545 79.2375Z" stroke="#DC4981" stroke-width="1.5"/>
<path d="M84.004 80.8308C85.6635 80.8326 87.0033 82.1794 86.9996 83.8421C86.9959 85.5011 85.6506 86.8331 83.9819 86.8294C82.3352 86.8258 80.9991 85.4791 81.001 83.8237C81.0047 82.1683 82.3481 80.829 84.004 80.8308Z" fill="#DC4981"/>
<path d="M89.3999 81.5095C89.4019 81.8921 89.0926 82.2042 88.7126 82.2083C88.3265 82.2123 88.0071 81.9002 88.0071 81.5155C88.0051 81.1349 88.3144 80.8228 88.6964 80.8187C89.0886 80.8167 89.3999 81.1228 89.3999 81.5095Z" fill="#DC4981"/>
</svg>
