<svg width="52" height="52" viewBox="0 0 52 52" fill="none" xmlns="http://www.w3.org/2000/svg">
<circle cx="26" cy="26" r="26" fill="#DC4981"/>
<g clip-path="url(#clip0_140_2388)">
<path d="M26.0001 29.4665C27.9147 29.4665 29.4668 27.9145 29.4668 25.9999C29.4668 24.0853 27.9147 22.5332 26.0001 22.5332C24.0855 22.5332 22.5334 24.0853 22.5334 25.9999C22.5334 27.9145 24.0855 29.4665 26.0001 29.4665Z" fill="#F9F9F9"/>
<path d="M22.7501 15.1665L20.7676 17.3332H17.3334C16.1417 17.3332 15.1667 18.3082 15.1667 19.4998V32.4998C15.1667 33.6915 16.1417 34.6665 17.3334 34.6665H34.6667C35.8584 34.6665 36.8334 33.6915 36.8334 32.4998V19.4998C36.8334 18.3082 35.8584 17.3332 34.6667 17.3332H31.2326L29.2501 15.1665H22.7501ZM26.0001 31.4165C23.0101 31.4165 20.5834 28.9898 20.5834 25.9998C20.5834 23.0098 23.0101 20.5832 26.0001 20.5832C28.9901 20.5832 31.4167 23.0098 31.4167 25.9998C31.4167 28.9898 28.9901 31.4165 26.0001 31.4165Z" fill="#F9F9F9"/>
</g>
<defs>
<clipPath id="clip0_140_2388">
<rect width="26" height="26" fill="white" transform="translate(13 13)"/>
</clipPath>
</defs>
</svg>
