<svg width="18" height="16" viewBox="0 0 18 16" fill="none" xmlns="http://www.w3.org/2000/svg">
<path d="M17.0891 7.41082L10.4225 0.744156C10.3059 0.627612 10.1575 0.54824 9.99582 0.51608C9.83418 0.48392 9.66663 0.500415 9.51437 0.563479C9.3621 0.626544 9.23196 0.733345 9.1404 0.870377C9.04883 1.00741 8.99996 1.16851 8.99996 1.33332V4.28742C6.72354 4.49813 4.60767 5.55071 3.0664 7.23919C1.52513 8.92766 0.669383 11.1305 0.666626 13.4167V14.6667C0.666613 14.8397 0.720481 15.0085 0.820753 15.1495C0.921025 15.2906 1.06273 15.3969 1.22618 15.4538C1.38964 15.5107 1.56674 15.5152 1.73291 15.4668C1.89907 15.4185 2.04605 15.3195 2.15344 15.1838C2.96981 14.2129 3.97148 13.4145 5.09993 12.8351C6.22838 12.2557 7.46098 11.907 8.72571 11.8094C8.76721 11.8041 8.87138 11.796 8.99996 11.7878V14.6667C8.99996 14.8315 9.04883 14.9926 9.1404 15.1296C9.23196 15.2666 9.3621 15.3734 9.51437 15.4365C9.66663 15.4996 9.83418 15.5161 9.99582 15.4839C10.1575 15.4517 10.3059 15.3724 10.4225 15.2558L17.0891 8.58916C17.1665 8.5118 17.2279 8.41995 17.2698 8.31886C17.3117 8.21777 17.3332 8.10941 17.3332 7.99999C17.3332 7.89056 17.3117 7.78221 17.2698 7.68112C17.2279 7.58003 17.1665 7.48818 17.0891 7.41082ZM10.6666 12.6549V10.9167C10.6667 10.8072 10.6451 10.6988 10.6033 10.5977C10.5614 10.4966 10.5 10.4047 10.4226 10.3273C10.3452 10.2499 10.2533 10.1886 10.1522 10.1467C10.0511 10.1048 9.94274 10.0833 9.83329 10.0833C9.62089 10.0833 8.75338 10.1244 8.53203 10.1542C6.28585 10.361 4.14776 11.2144 2.37643 12.611C2.57737 10.7729 3.44928 9.07358 4.82518 7.83838C6.20109 6.60317 7.98428 5.91892 9.83329 5.91666C9.94274 5.91668 10.0511 5.89515 10.1522 5.85328C10.2533 5.81141 10.3452 5.75003 10.4226 5.67264C10.5 5.59525 10.5614 5.50338 10.6033 5.40226C10.6451 5.30114 10.6667 5.19277 10.6666 5.08332V3.34504L15.3216 7.99999L10.6666 12.6549Z" fill="#9B9B9B"/>
</svg>
