<svg fill="none" height="693" viewBox="0 0 792 693" width="792" xmlns="http://www.w3.org/2000/svg" xmlns:xlink="http://www.w3.org/1999/xlink"><linearGradient id="a" gradientUnits="userSpaceOnUse" x1="365.705" x2="221.145" y1="41.6717" y2="111.736"><stop offset="0" stop-color="#95abc2"/><stop offset="1" stop-color="#fff"/></linearGradient><mask id="b" height="35" maskUnits="userSpaceOnUse" width="36" x="485" y="47"><path d="m485.707 71.3098c0-13.4206 10.88-24.3 24.3-24.3h10.124v10.0688c0 13.4206-10.88 24.3-24.3 24.3h-10.124z" fill="#fff"/></mask><path clip-rule="evenodd" d="m716.137 379.17c0 171.664-139.513 310.829-311.607 310.829s-311.6047-139.165-311.6047-310.829 139.5107-310.8292 311.6047-310.8292 311.607 139.1652 311.607 310.8292z" fill-rule="evenodd" stroke="#e9eaec" stroke-dasharray="5.02 5.02"/><path clip-rule="evenodd" d="m635.931 379.171c0 127.479-103.602 230.824-231.401 230.824-127.801 0-231.398-103.345-231.398-230.824s103.597-230.823 231.398-230.823c127.799 0 231.401 103.344 231.401 230.823z" fill-rule="evenodd" stroke="#e9eaec" stroke-dasharray="5.05 5.05"/><g stroke="#d2d8df" stroke-linecap="round"><path d="m34.058 421.02-5.7854-.176"/><path d="m29.9077 410.077-4.1492 3.866"/><path d="m19.0934 405.082-.0871 5.642"/><path d="m7.94788 408.955 4.02902 4.115"/><path d="m3 419.435 5.7824.176"/><path d="m7.1488 430.376 4.1522-3.866"/><path d="m17.9647 435.375.087-5.643"/><path d="m29.1103 431.498-4.0291-4.115"/><path d="m788.541 340.582-2.543 2.746"/><path d="m776.602 342.967 1.919 1.764"/><path d="m774.667 355.138 2.542-2.746"/><path d="m786.603 352.749-1.916-1.764"/><path d="m555.632 17.8132-6.152-.1648"/><path d="m539.714 3-.093 5.24388"/><path d="m522.595 16.3389 6.152.1617"/><path d="m538.512 31.1511.093-5.2439"/></g><path clip-rule="evenodd" d="m100.085 584.008c-4.4254 1.321-11.796 7.808-14.3179 15.498-.4234-7.145-4.9718-16.127-9.9766-17.42 6.1066-2.154 12.7207-10.069 14.48-16.738-.3183 6.989 6.0436 17.139 9.8145 18.66z" fill="#ebecef" fill-rule="evenodd"/><path clip-rule="evenodd" d="m203.731 45.9007c-3.414.602-9.463 4.7947-12.009 10.3051.303-5.3577-2.306-12.4404-5.921-13.8359 4.735-1.0782 10.349-6.4029 12.238-11.2185-.844 5.181 3.014 13.2908 5.692 14.7493z" fill="#ebecef" fill-rule="evenodd"/><path clip-rule="evenodd" d="m656.176 84.8081c-4.561-.0988-8.175-3.8633-8.073-8.4094.099-4.5461 3.873-8.1518 8.427-8.053 4.561.0989 8.175 3.8633 8.076 8.4094-.102 4.5461-3.873 8.1518-8.43 8.053z" fill="#d1d9e0" fill-rule="evenodd"/><path clip-rule="evenodd" d="m656.197 624.328c-3.966-.084-7.113-3.363-7.029-7.319.084-3.96 3.372-7.098 7.341-7.014 3.969.087 7.115 3.363 7.028 7.322-.087 3.956-3.371 7.098-7.34 7.011z" fill="#ebecef" fill-rule="evenodd"/><path clip-rule="evenodd" d="m59.5099 194.078c-2.4559-.054-4.4043-2.082-4.3503-4.534.051-2.45 2.0866-4.391 4.5425-4.34 2.4558.054 4.4043 2.081 4.3533 4.531-.0541 2.453-2.0896 4.397-4.5455 4.343z" fill-rule="evenodd" stroke="#d2d8df" stroke-linecap="round"/><path clip-rule="evenodd" d="m383.513 213.24 204.781 56.27v196.895l-204.781-88.222z" fill="#8e99a3" fill-rule="evenodd"/><path clip-rule="evenodd" d="m383.747 213.437-167.255 46.737v206.894l167.255-89.551z" fill="#a0aab5" fill-rule="evenodd"/><path d="m491.467 452.301c-46.216-13.529-127.382-12.321-157.864-91.387-27.936-72.462 75.117-142.204 103.948-111.67 20.43 21.636-5.756 52.839-42.095 49.333-40.902-3.945-65.078-40.523-57.013-79.867 15.997-78.043 138.992-129.6776 144.178-133.2745" stroke="url(#a)" stroke-dasharray="6 7" stroke-width="2"/><ellipse cx="476.702" cy="41.638" fill="#ced8e5" opacity=".4" rx="19.9294" ry="26.2289" transform="matrix(.70710678 -.70710678 .70710678 .70710678 110.180271 349.274705)"/><ellipse cx="527.431" cy="90.4792" fill="#ced8e5" opacity=".4" rx="19.9294" ry="26.2289" transform="matrix(-.70710678 .70710678 -.70710678 -.70710678 964.359493 -218.492381)"/><path d="m485.707 71.3098c0-13.4206 10.88-24.3 24.3-24.3h10.124v10.0688c0 13.4206-10.88 24.3-24.3 24.3h-10.124z" fill="#a8b7c5"/><g fill="#dde5f2" mask="url(#b)"><path d="m479.68 56.5693h5.4353v39.7955h-5.4353z" transform="matrix(.70710678 -.70710678 .70710678 .70710678 100.494484 355.753745)"/><path clip-rule="evenodd" d="m490.549 47.525 3.843-3.8434 28.14 28.1397-3.844 3.8434z" fill-rule="evenodd"/></g><path d="m538.609 38.4002 13.223-3.1467" stroke="#8696c5" stroke-width=".9"/><path d="m533.175 32.972 5.087-13.0882" stroke="#8696c5" stroke-width=".9"/><ellipse cx="525.564" cy="43.393" fill="#8b9aa8" rx="14.4941" ry="14.4711"/><path clip-rule="evenodd" d="m216.487 260.543 204.782 64.984v229.471l-204.782-88.221z" fill="#dae2ec" fill-rule="evenodd"/><path clip-rule="evenodd" d="m589.324 269.256-170.957 56.27v229.471l170.957-88.221z" fill="#c5d0d9" fill-rule="evenodd"/><path clip-rule="evenodd" d="m588.84 269.121 66.088 88.445-175.386 69.117-60.573-101.592z" fill="#dae2ec" fill-rule="evenodd"/><path clip-rule="evenodd" d="m216.243 260.065-57.243 89.298 201.749 77.321 58.944-101.713z" fill="#c5d0d9" fill-rule="evenodd"/></svg>