<svg width="14" height="18" viewBox="0 0 14 18" fill="none" xmlns="http://www.w3.org/2000/svg">
<path d="M6.5 12C9.53757 12 12 9.53757 12 6.5C12 3.46243 9.53757 1 6.5 1C3.46243 1 1 3.46243 1 6.5C1 9.53757 3.46243 12 6.5 12Z" fill="white"/>
<path d="M6.5051 12.6443C6.43083 12.753 6.32842 12.8394 6.20882 12.8943C6.08922 12.9493 5.95693 12.9707 5.8261 12.9563C5.76356 12.8436 5.67754 12.7456 5.57387 12.6691C5.4702 12.5925 5.35129 12.5391 5.22519 12.5124C5.09909 12.4858 4.96873 12.4866 4.84294 12.5146C4.71715 12.5427 4.59887 12.5975 4.49609 12.6753C4.45898 12.5515 4.39565 12.4371 4.31039 12.34C4.22514 12.2429 4.11997 12.1652 4.00203 12.1124C3.88409 12.0595 3.75616 12.0327 3.62692 12.0338C3.49769 12.0348 3.37019 12.0636 3.2531 12.1183C3.1631 12.0642 3.08598 11.9912 3.0271 11.9043V17.6843L6.51309 15.4173V12.6523L6.5051 12.6443Z" fill="#FF6427"/>
<path d="M0.815044 6.48512C0.815044 4.97339 1.41558 3.52358 2.48454 2.45462C3.5535 1.38566 5.00331 0.785127 6.51504 0.785127V0.294129C6.4377 0.190696 6.33437 0.109565 6.21554 0.058976C6.09671 0.00838684 5.96661 -0.00985523 5.83845 0.00608906C5.71029 0.0220334 5.58862 0.0716027 5.48581 0.149766C5.38299 0.227929 5.30269 0.331897 5.25305 0.451127C5.15785 0.35984 5.03975 0.295979 4.91124 0.266282C4.78273 0.236585 4.64858 0.242164 4.52298 0.282426C4.39737 0.322688 4.28498 0.396137 4.19769 0.495011C4.11039 0.593886 4.05144 0.71451 4.02705 0.844132C3.5121 1.30164 2.86098 1.57712 2.17404 1.62813C2.19063 1.75661 2.17911 1.88716 2.14025 2.01074C2.1014 2.13432 2.03615 2.24799 1.94903 2.34386C1.86191 2.43973 1.75499 2.51551 1.63568 2.56598C1.51637 2.61645 1.38751 2.64038 1.25804 2.63612C1.30074 2.75803 1.3165 2.88775 1.30421 3.01633C1.29192 3.14491 1.25188 3.2693 1.18685 3.38091C1.12183 3.49251 1.03336 3.58869 0.927562 3.6628C0.821764 3.7369 0.701156 3.78717 0.574046 3.81014C0.640528 3.92104 0.682328 4.04498 0.696605 4.17349C0.710882 4.30201 0.6973 4.43209 0.65678 4.55489C0.616259 4.67768 0.549749 4.79029 0.461788 4.88507C0.373826 4.97985 0.266478 5.05457 0.147044 5.10413C0.236013 5.19786 0.303495 5.30983 0.344814 5.43228C0.386132 5.55473 0.400291 5.68472 0.386302 5.81319C0.372313 5.94166 0.330524 6.06554 0.26382 6.17622C0.197116 6.28691 0.107098 6.38175 4.12993e-05 6.45413C-0.00131585 6.45972 -0.00131585 6.46555 4.12993e-05 6.47113C4.12993e-05 6.47113 4.12993e-05 6.47813 4.12993e-05 6.48113C0.106812 6.55421 0.196424 6.64963 0.262676 6.76077C0.328928 6.87192 0.370233 6.99613 0.383739 7.12482C0.397244 7.2535 0.382626 7.38357 0.340892 7.50604C0.299159 7.62852 0.23131 7.74046 0.14204 7.83412C0.261733 7.88424 0.369176 7.95966 0.456996 8.05519C0.544816 8.15072 0.610935 8.26412 0.650829 8.3876C0.690722 8.51108 0.703447 8.64173 0.688121 8.77059C0.672795 8.89944 0.629781 9.02345 0.562038 9.13413C0.689239 9.15738 0.809875 9.20799 0.915599 9.28244C1.02132 9.35689 1.10961 9.45343 1.17437 9.56535C1.23913 9.67728 1.27882 9.80193 1.29068 9.9307C1.30253 10.0595 1.28627 10.1893 1.24304 10.3111C1.37239 10.3075 1.50098 10.3321 1.61991 10.3831C1.73885 10.434 1.84531 10.5102 1.93193 10.6063C2.01855 10.7025 2.08326 10.8163 2.12161 10.9398C2.15996 11.0634 2.17103 11.1939 2.15405 11.3221C2.24955 11.273 2.35647 11.2504 2.46366 11.2567C2.57086 11.2631 2.6744 11.298 2.76348 11.358C2.85256 11.418 2.92392 11.5007 2.9701 11.5977C3.01629 11.6946 3.0356 11.8022 3.02604 11.9091V10.9851C2.33825 10.4538 1.78134 9.7719 1.39807 8.99184C1.0148 8.21177 0.815353 7.35426 0.815044 6.48512Z" fill="#FFDE5D"/>
<path d="M13.0241 6.4951C13.0249 6.36372 12.9904 6.23453 12.9241 6.12109V6.86409C12.9894 6.75206 13.0239 6.62477 13.0241 6.4951Z" fill="#E5B92E"/>
<path d="M3.25201 12.119C3.36911 12.0643 3.49662 12.0354 3.62585 12.0344C3.75509 12.0334 3.88302 12.0602 4.00096 12.1131C4.1189 12.1659 4.22407 12.2436 4.30933 12.3407C4.39458 12.4378 4.45792 12.5522 4.49503 12.676C4.59751 12.5974 4.71577 12.5419 4.84172 12.5134C4.96767 12.4848 5.0983 12.4838 5.22466 12.5105C5.35101 12.5372 5.4701 12.591 5.57373 12.668C5.67736 12.7451 5.76309 12.8437 5.82503 12.957C5.95586 12.9714 6.08815 12.95 6.20775 12.8951C6.32735 12.8401 6.42975 12.7537 6.50401 12.645L6.51102 12.653V12.18C5.24773 12.1798 4.02076 11.7574 3.02502 10.98V11.902C3.08385 11.9901 3.16134 12.0642 3.25201 12.119Z" fill="#FFDE5D"/>
<path d="M1.05898 6.48216C1.06057 5.0366 1.63545 3.65068 2.65752 2.62842C3.6796 1.60616 5.06541 1.03101 6.51098 1.02916V0.785158C5.32242 0.784121 4.16334 1.15505 3.19621 1.84593C2.22907 2.53682 1.50237 3.51304 1.11799 4.63773C0.73361 5.76242 0.71082 6.9792 1.0528 8.1175C1.39479 9.25579 2.08441 10.2585 3.02499 10.9852V10.6732C2.40944 10.162 1.91414 9.52141 1.57433 8.79703C1.23453 8.07265 1.05857 7.28229 1.05898 6.48216Z" fill="white"/>
<path d="M3.026 10.6709V10.9829C4.02173 11.7603 5.24873 12.1827 6.51201 12.1829V11.9389C5.23716 11.9387 4.00304 11.4898 3.026 10.6709Z" fill="white"/>
<path d="M6.51204 9.84909V7.80609L4.47503 9.28609L5.25303 6.89108L3.21603 5.41109H5.73404L6.51204 3.01709V1.51709C5.52673 1.5162 4.56345 1.80861 3.7449 2.35709C2.92636 2.90556 2.2896 3.68527 1.91572 4.5969C1.54185 5.50852 1.44779 6.51079 1.64552 7.47606C1.84325 8.44133 2.32382 9.3259 3.02603 10.0171V9.85208L6.51204 9.84909Z" fill="#FFDE5D"/>
<path d="M6.51201 9.85303H3.026V10.018C3.95355 10.9366 5.20658 11.4513 6.51201 11.45V9.85303Z" fill="#FFDE5D"/>
<path d="M1.30309 6.4823C1.30468 5.10145 1.85386 3.77759 2.83018 2.80109C3.80649 1.82458 5.13025 1.27514 6.5111 1.27329V1.0293C5.39011 1.02863 4.29618 1.37365 3.37841 2.01733C2.46065 2.66102 1.76369 3.57206 1.38255 4.62627C1.0014 5.68048 0.954621 6.82657 1.24856 7.90834C1.5425 8.99011 2.16285 9.95494 3.02509 10.6713V10.3413C2.48351 9.85478 2.05031 9.25977 1.75364 8.59494C1.45697 7.93011 1.30347 7.21032 1.30309 6.4823Z" fill="#E5B92E"/>
<path d="M3.026 10.3403V10.6703C4.0036 11.4878 5.23766 11.9353 6.51201 11.9344V11.6903C5.2225 11.6898 3.97951 11.2085 3.026 10.3403Z" fill="#E5B92E"/>
<path d="M1.3031 6.48199C1.30348 7.21002 1.45698 7.92982 1.75365 8.59465C2.05031 9.25948 2.48351 9.85449 3.0251 10.341V10.015C2.32289 9.32381 1.84231 8.43925 1.64458 7.47398C1.44684 6.50872 1.54091 5.50643 1.91478 4.5948C2.28865 3.68318 2.92541 2.90347 3.74396 2.355C4.5625 1.80652 5.52578 1.51411 6.51109 1.515V1.271C5.1299 1.27285 3.80584 1.82256 2.82947 2.7995C1.85309 3.77644 1.30416 5.1008 1.3031 6.48199Z" fill="#E5B92E"/>
<path d="M3.026 10.0142V10.3401C3.97951 11.2083 5.2225 11.6897 6.51201 11.6902V11.4462C5.20658 11.4475 3.95355 10.9327 3.026 10.0142Z" fill="#E5B92E"/>
<path d="M5.73407 5.411H3.21606L5.25307 6.89101L4.47507 9.291L6.51207 7.811V3.021L5.73407 5.411Z" fill="#E5B92E"/>
<path d="M9.99905 17.684V11.896C9.89718 12.0556 9.73625 12.1683 9.55147 12.2095C9.36669 12.2508 9.17309 12.2171 9.01305 12.116C8.32764 12.1889 7.6851 12.4847 7.18405 12.958C7.15905 12.958 7.13505 12.958 7.10805 12.958C6.99044 12.958 6.87454 12.9298 6.77013 12.8757C6.66571 12.8215 6.57583 12.7431 6.50806 12.647V15.412L9.99905 17.684Z" fill="#B54624"/>
<path d="M12.921 6.86499V6.122C12.8266 6.08179 12.7456 6.01557 12.6875 5.93106C12.6293 5.84656 12.5963 5.74724 12.5925 5.64472C12.5886 5.54219 12.6139 5.44068 12.6656 5.35202C12.7172 5.26336 12.793 5.19121 12.884 5.14398C12.7639 5.09435 12.6561 5.01916 12.568 4.92363C12.4799 4.82811 12.4136 4.71453 12.3739 4.59082C12.3341 4.46711 12.3217 4.33622 12.3376 4.20725C12.3536 4.07828 12.3974 3.95433 12.466 3.844C12.3393 3.81946 12.2194 3.76797 12.1144 3.69301C12.0093 3.61806 11.9217 3.52138 11.8573 3.40956C11.7929 3.29774 11.7533 3.17339 11.7411 3.04492C11.729 2.91646 11.7447 2.78689 11.787 2.665C11.6579 2.66788 11.5297 2.64275 11.4112 2.59134C11.2927 2.53993 11.1868 2.46346 11.1007 2.36719C11.0146 2.27092 10.9504 2.15714 10.9124 2.03368C10.8745 1.91021 10.8638 1.78 10.881 1.652C10.7554 1.68113 10.6249 1.6829 10.4985 1.65721C10.3721 1.63153 10.2527 1.57898 10.1484 1.50312C10.0441 1.42725 9.95729 1.32984 9.89391 1.2175C9.83052 1.10516 9.79204 0.98051 9.78104 0.851993C9.66688 0.785821 9.53702 0.751549 9.40508 0.75278C9.27313 0.754012 9.14394 0.790706 9.03104 0.858997C9.007 0.729568 8.94856 0.608994 8.86185 0.509952C8.77513 0.41091 8.66333 0.337052 8.53821 0.29613C8.41309 0.255209 8.27927 0.248735 8.15079 0.277393C8.0223 0.30605 7.9039 0.368775 7.80803 0.458987C7.75778 0.337356 7.67572 0.231491 7.57045 0.152515C7.46518 0.0735382 7.34059 0.0243687 7.20976 0.0101502C7.07893 -0.0040684 6.94668 0.0172008 6.8269 0.0717194C6.70713 0.126238 6.60424 0.211997 6.52904 0.319995C6.52304 0.310995 6.51603 0.303986 6.50903 0.294986V0.785983C7.98797 0.833985 9.39029 1.45524 10.4195 2.51839C11.4487 3.58154 12.0241 5.00327 12.0241 6.48299C12.0241 7.96271 11.4487 9.38444 10.4195 10.4476C9.39029 11.5107 7.98797 12.132 6.50903 12.18V12.653C6.57681 12.7491 6.6667 12.8275 6.77112 12.8817C6.87554 12.9358 6.99143 12.964 7.10904 12.964C7.13604 12.964 7.16003 12.964 7.18503 12.964C7.24752 12.8508 7.33366 12.7525 7.43758 12.6756C7.54149 12.5987 7.66075 12.5451 7.78723 12.5185C7.91372 12.4918 8.04446 12.4927 8.17056 12.5211C8.29667 12.5495 8.41518 12.6047 8.51804 12.683C8.55565 12.5594 8.61943 12.4453 8.70506 12.3485C8.79069 12.2518 8.89615 12.1746 9.01427 12.1222C9.13239 12.0698 9.2604 12.0435 9.3896 12.045C9.5188 12.0465 9.64617 12.0759 9.76303 12.131C9.77403 12.0025 9.81253 11.8778 9.87592 11.7655C9.9393 11.6531 10.0261 11.5557 10.1304 11.4799C10.2347 11.404 10.3541 11.3514 10.4805 11.3258C10.6069 11.3001 10.7374 11.3019 10.863 11.331C10.8461 11.2027 10.8571 11.0723 10.8955 10.9487C10.9338 10.8251 10.9985 10.7113 11.0852 10.6152C11.1718 10.5191 11.2782 10.4429 11.3972 10.3919C11.5161 10.341 11.6447 10.3164 11.774 10.32C11.7312 10.198 11.7153 10.0682 11.7275 9.9395C11.7397 9.8108 11.7797 9.68629 11.8447 9.57456C11.9098 9.46283 11.9983 9.36656 12.1042 9.29239C12.2101 9.21822 12.3308 9.16793 12.458 9.14499C12.3904 9.03466 12.3475 8.91094 12.3324 8.78241C12.3172 8.65388 12.3301 8.5236 12.3703 8.40056C12.4104 8.27752 12.4768 8.16465 12.5648 8.06977C12.6528 7.97488 12.7604 7.90023 12.88 7.85099C12.7891 7.80268 12.7137 7.72963 12.6625 7.64029C12.6113 7.55095 12.5864 7.44896 12.5907 7.34607C12.595 7.24319 12.6283 7.14363 12.6867 7.05886C12.7452 6.97408 12.8264 6.90757 12.921 6.86699V6.86499Z" fill="#E5B92E"/>
<path d="M6.51404 0.785156V1.02916C7.96026 1.02916 9.34725 1.60366 10.3699 2.6263C11.3925 3.64893 11.967 5.03594 11.967 6.48216C11.967 7.92839 11.3925 9.31538 10.3699 10.338C9.34725 11.3606 7.96026 11.9352 6.51404 11.9352V12.1792C7.99298 12.1312 9.39528 11.5099 10.4245 10.4467C11.4537 9.38359 12.0291 7.96188 12.0291 6.48216C12.0291 5.00245 11.4537 3.58072 10.4245 2.51756C9.39528 1.45441 7.99298 0.833158 6.51404 0.785156Z" fill="#C6C6C6"/>
<path d="M6.51404 3.01518L7.29204 5.41017H9.81404L7.77704 6.89018L8.55504 9.28517L6.51703 7.80518V9.84818H10.004V10.0132C10.7062 9.32199 11.1868 8.43742 11.3846 7.47215C11.5823 6.50689 11.4882 5.50461 11.1143 4.59299C10.7405 3.68137 10.1037 2.90166 9.28517 2.35318C8.46663 1.80471 7.50335 1.5123 6.51804 1.51319V3.01319L6.51404 3.01518Z" fill="#E5B92E"/>
<path d="M6.51404 9.85303V11.453C7.81948 11.4545 9.07255 10.9397 10 10.021V9.85303H6.51404Z" fill="#E5B92E"/>
<path d="M6.51404 1.02933V1.51732C7.8185 1.53583 9.06327 2.06702 9.97919 2.99603C10.8951 3.92504 11.4086 5.17723 11.4086 6.48183C11.4086 7.78642 10.8951 9.03859 9.97919 9.96761C9.06327 10.8966 7.8185 11.4278 6.51404 11.4463V11.9343C7.96026 11.9343 9.34725 11.3598 10.3699 10.3372C11.3925 9.31454 11.967 7.92755 11.967 6.48132C11.967 5.0351 11.3925 3.64811 10.3699 2.62547C9.34725 1.60284 7.96026 1.02832 6.51404 1.02832V1.02933Z" fill="#C19721"/>
<path d="M8.54909 9.28928L7.77109 6.88928L9.80809 5.40929H7.29008L6.51208 3.00928V7.79929L8.54909 9.28928Z" fill="#C19721"/>
</svg>
