<svg fill="none" height="693" viewBox="0 0 792 693" width="792" xmlns="http://www.w3.org/2000/svg" xmlns:xlink="http://www.w3.org/1999/xlink"><linearGradient id="a" gradientUnits="userSpaceOnUse" x1="458.595" x2="458.595" y1="123.032" y2="258.867"><stop offset="0" stop-color="#fad961"/><stop offset="1" stop-color="#f76b1c"/></linearGradient><linearGradient id="b" gradientUnits="userSpaceOnUse" x1="283.953" x2="142.17" y1="276.249" y2="384.274"><stop offset="0" stop-color="#ff8960"/><stop offset="1" stop-color="#ff62a5"/></linearGradient><path clip-rule="evenodd" d="m716.137 379.17c0 171.664-139.513 310.829-311.607 310.829s-311.6046-139.165-311.6046-310.829 139.5106-310.8292 311.6046-310.8292 311.607 139.1652 311.607 310.8292z" fill-rule="evenodd" stroke="#e9eaec" stroke-dasharray="5.02 5.02"/><path clip-rule="evenodd" d="m635.931 379.171c0 127.479-103.602 230.824-231.401 230.824-127.801 0-231.398-103.345-231.398-230.824s103.597-230.823 231.398-230.823c127.799 0 231.401 103.344 231.401 230.823z" fill-rule="evenodd" stroke="#e9eaec" stroke-dasharray="5.05 5.05"/><g stroke="#d2d8df" stroke-linecap="round"><path d="m34.058 421.02-5.7854-.176"/><path d="m29.9077 410.077-4.1492 3.866"/><path d="m19.0934 405.082-.0871 5.642"/><path d="m7.94778 408.955 4.02912 4.115"/><path d="m3 419.435 5.7824.176"/><path d="m7.1489 430.376 4.1522-3.866"/><path d="m17.9646 435.375.087-5.643"/><path d="m29.1103 431.498-4.0291-4.115"/><path d="m788.541 340.582-2.543 2.746"/><path d="m776.602 342.967 1.919 1.764"/><path d="m774.667 355.138 2.543-2.746"/><path d="m786.603 352.749-1.916-1.764"/><path d="m555.632 17.8132-6.152-.1648"/><path d="m539.714 3-.093 5.24388"/><path d="m522.595 16.3389 6.152.1617"/><path d="m538.512 31.1511.093-5.2439"/></g><path clip-rule="evenodd" d="m100.085 584.008c-4.4255 1.321-11.7961 7.808-14.318 15.498-.4234-7.145-4.9718-16.127-9.9766-17.42 6.1066-2.154 12.7207-10.069 14.48-16.738-.3182 6.989 6.0436 17.139 9.8146 18.66z" fill="#ebecef" fill-rule="evenodd"/><path clip-rule="evenodd" d="m203.731 45.9007c-3.414.602-9.463 4.7947-12.009 10.3051.303-5.3577-2.306-12.4404-5.921-13.8359 4.735-1.0782 10.349-6.4029 12.238-11.2185-.844 5.181 3.014 13.2908 5.692 14.7493z" fill="#ebecef" fill-rule="evenodd"/><path clip-rule="evenodd" d="m656.176 84.8081c-4.561-.0988-8.175-3.8633-8.073-8.4094.099-4.5461 3.873-8.1518 8.427-8.053 4.561.0989 8.175 3.8633 8.076 8.4094-.102 4.5461-3.873 8.1518-8.43 8.053z" fill="#d1d9e0" fill-rule="evenodd"/><path clip-rule="evenodd" d="m656.197 624.328c-3.966-.084-7.112-3.363-7.028-7.319.084-3.96 3.371-7.098 7.34-7.014 3.969.087 7.116 3.363 7.029 7.322-.088 3.956-3.372 7.098-7.341 7.011z" fill="#ebecef" fill-rule="evenodd"/><path clip-rule="evenodd" d="m59.5099 194.078c-2.4559-.054-4.4043-2.082-4.3503-4.534.051-2.45 2.0866-4.391 4.5425-4.34 2.4558.054 4.4043 2.081 4.3533 4.531-.0541 2.453-2.0896 4.397-4.5455 4.343z" fill-rule="evenodd" stroke="#d2d8df" stroke-linecap="round"/><path clip-rule="evenodd" d="m538.606 176.9c0 15.768-12.816 28.549-28.621 28.549-15.81 0-28.62-12.781-28.62-28.549s12.81-28.552 28.62-28.552c15.805 0 28.621 12.784 28.621 28.552z" fill="#fff" fill-rule="evenodd"/><path clip-rule="evenodd" d="m221.859 554.206-42.638-262.541c-.634-3.888 1.158-7.769 4.527-9.817l112.619-68.572c2.215-1.348 4.875-1.758 7.391-1.138l138.919 34.272c2.603.641 5.356.18 7.608-1.272l92.933-59.983c5.464-3.528 12.796-.8 14.603 5.438l78.191 269.298c1.144 3.944-.327 8.179-3.668 10.571l-85.56 61.163c-2.32 1.656-5.248 2.213-8.013 1.524l-162.739-40.582c-2.275-.566-4.683-.293-6.77.77l-133.397 67.948c-5.867 2.986-12.949-.592-14.006-7.079z" fill="#f1f2f7" fill-rule="evenodd"/><path clip-rule="evenodd" d="m510.34 199.109c-13.535 0-24.505-10.946-24.505-24.446 0-13.501 10.97-24.447 24.505-24.447 13.537 0 24.507 10.946 24.507 24.447 0 13.5-10.97 24.446-24.507 24.446zm0-76.056c-27.781-.785-50.94 21.044-51.727 48.755-.021.788-.024 1.578-.009 2.366 0 42.807 47.923 82.41 49.94 84.04 1.018.871 2.519.871 3.54 0 2.123-1.899 49.994-45.47 49.994-84.04.522-27.72-21.577-50.612-49.367-51.13-.789-.015-1.579-.012-2.371.009z" fill="url(#a)" fill-rule="evenodd"/><path d="m317.334 435.071 82.947 21.587c8.728 2.27 15.594-7.49 10.466-14.891-28.632-41.304-82.223-126.91-31.8-123.316 66.357 4.729 53.717 64.505 67.936 72.441 14.222 7.933 99.535-9.79 102.693-41.112 3.161-31.329-7.896-47.088-30.017-56.542-22.118-9.458-11.015-35.021-11.015-35.021" stroke="#0e1d25" stroke-dasharray="7" stroke-width="2"/><path clip-rule="evenodd" d="m211.255 326.527-5.678-22.021c-1.255-4.863.907-9.963 5.281-12.458l69.191-39.438c.546-.312 1.114-.575 1.702-.791l22.935-8.37c1.984-.725 4.137-.875 6.205-.429l50.325 10.862c4.032.869 7.253 3.882 8.385 7.835 2.159 7.535-3.939 14.878-11.76 14.168l-22.139-2.006c-7.082-.644-12.958 5.387-12.111 12.431l2.039 16.947c.618 5.14-2.39 10.027-7.263 11.803l-46.517 16.947c-3.279 1.192-6.924.791-9.863-1.084l-12.757-8.14c-5.208-3.327-12.135-1.799-15.455 3.406l-2.264 3.548c-5.251 8.23-17.819 6.239-20.256-3.21z" fill="#d8dbea" fill-rule="evenodd"/><path clip-rule="evenodd" d="m517.065 426.186 15.882 67.901c1.826 7.804 11.07 11.197 17.531 6.433l52.879-38.989c3.699-2.723 5.344-7.427 4.152-11.857l-12.405-46.12c-1.639-6.097-8.019-9.622-14.066-7.774l-56.359 17.211c-5.623 1.716-8.95 7.484-7.614 13.195z" fill="#d8dbea" fill-rule="evenodd"/><path clip-rule="evenodd" d="m451.821 448.67 36.271 2.318c4.75.306 8.788 3.576 10.058 8.155l7.049 25.402c2.27 8.173-5.074 15.779-13.348 13.824l-35.901-8.481c-3.591-.848-6.533-3.412-7.857-6.847l-7.419-19.241c-2.924-7.589 3.014-15.648 11.147-15.13z" fill="#d8dbea" fill-rule="evenodd"/><path clip-rule="evenodd" d="m283.954 432.139c-14.654 0-26.534-11.851-26.534-26.465 0-14.618 11.88-26.468 26.534-26.468s26.532 11.85 26.532 26.468c0 14.614-11.878 26.465-26.532 26.465zm0-82.338c-30.08-.851-55.149 22.781-56.001 52.783-.024.853-.028 1.707-.012 2.56 0 46.345 51.885 89.221 54.068 90.985 1.102.943 2.729.943 3.831 0 2.302-2.057 54.125-49.225 54.125-90.985.567-30.008-23.361-54.792-53.447-55.355-.856-.015-1.711-.012-2.564.012z" fill="url(#b)" fill-rule="evenodd"/></svg>