<svg width="26" height="26" viewBox="0 0 26 26" fill="none" xmlns="http://www.w3.org/2000/svg">
<path d="M3.19943 10.8522C3.37007 8.77719 5.10394 7.18005 7.18597 7.18005H18.4803C20.5624 7.18005 22.2962 8.77719 22.4669 10.8522L23.3104 21.1096C23.5021 23.4402 21.6623 25.4374 19.3239 25.4374H6.34244C4.00402 25.4374 2.16425 23.4402 2.3559 21.1096L3.19943 10.8522Z" fill="white"/>
<path d="M19.8676 17.5681L20.7692 19.5599L22.9239 20.3934L20.7692 21.2268L19.8676 23.2186L18.9661 21.2268L16.8114 20.3934L18.9661 19.5599L19.8676 17.5681Z" fill="#FAE62F"/>
<path d="M16.9998 10.953V6.1666C16.9998 3.86545 15.1343 2 12.8332 2V2C10.532 2 8.66656 3.86545 8.66656 6.1666V10.953" stroke="#FF7942" stroke-width="2.5" stroke-linecap="round"/>
</svg>
