<svg fill="none" height="600" viewBox="0 0 732 600" width="732" xmlns="http://www.w3.org/2000/svg" xmlns:xlink="http://www.w3.org/1999/xlink"><linearGradient id="a" gradientUnits="userSpaceOnUse" x1="344.762" x2="164.934" y1="172.304" y2="259.27"><stop offset="0" stop-color="#ff8960"/><stop offset="1" stop-color="#ff62a5"/></linearGradient><g stroke="#d2d8df" stroke-linecap="round" stroke-width="2.921"><path d="m25.7758 275.701v6.176"/><path d="m11.9028 279.047 5.0469 5.195"/><path d="m6 292.878h7.1363"/><path d="m11.3229 306.953 5.0469-5.195"/><path d="m25.7756 308.64v-6.176"/><path d="m36.0683 304.522-4.1175-4.118"/><path d="m44.3042 294.229h-6.1763"/><path d="m40.1867 279.814-4.1175 4.118"/><path d="m357.237 6v4.1175"/><path d="m344.885 18.3516h4.118"/><path d="m357.237 30.7044v-4.1175"/><path d="m367.531 18.3516h-4.118"/><path d="m118.421 178.934v6.176"/><path d="m99.8912 197.464h6.1758"/><path d="m118.421 213.935v-6.176"/><path d="m134.891 197.464h-6.176"/><path d="m561.576 403.421c4.92 0 8.91 3.991 8.91 8.913 0 4.923-3.99 8.912-8.91 8.912s-8.911-3.989-8.911-8.912"/><path d="m602.247 520.582c1.101 7.685-4.234 14.808-11.915 15.909-7.684 1.1-14.804-4.236-15.905-11.919-1.101-7.684 4.233-14.807 11.915-15.908"/></g><path clip-rule="evenodd" d="m602.353 322.559c5.29-1.651 13.4-8.121 15.277-15.082 1.702 6.153 8.839 13.431 15.278 13.982-7.248 2.567-14.179 10.191-15.278 16.18-.748-6.105-10.333-14.19-15.277-15.08z" fill="#ebecee" fill-rule="evenodd"/><path clip-rule="evenodd" d="m59.2727 400.675c2.6462-.825 6.6993-4.059 7.6379-7.54.8512 3.075 4.4185 6.715 7.6379 6.991-3.6232 1.282-7.0873 5.095-7.6379 8.089-.374-3.052-5.1665-7.096-7.6379-7.54z" fill="#ebecee" fill-rule="evenodd"/><path clip-rule="evenodd" d="m108.379 114.284c0 3.818-3.094 6.911-6.909 6.911-3.8175 0-6.9094-3.093-6.9094-6.911 0-3.817 3.0919-6.911 6.9094-6.911 3.815 0 6.909 3.094 6.909 6.911z" fill="#d1d8df" fill-rule="evenodd"/><path clip-rule="evenodd" d="m516.387 548.187c0 6.38-5.172 11.551-11.548 11.551-6.38 0-11.55-5.171-11.55-11.551 0-6.379 5.17-11.55 11.55-11.55 6.376 0 11.548 5.171 11.548 11.55z" fill="#ebecee" fill-rule="evenodd"/><path clip-rule="evenodd" d="m729.693 101.544c0 5.062-4.101 9.163-9.159 9.163-5.06 0-9.16-4.101-9.16-9.163 0-5.0607 4.1-9.1622 9.16-9.1622 5.058 0 9.159 4.1015 9.159 9.1622z" fill="#ebecee" fill-rule="evenodd"/><path clip-rule="evenodd" d="m237.504 529.475c0 3.191-2.585 5.777-5.775 5.777-3.188 0-5.773-2.586-5.773-5.777 0-3.19 2.585-5.776 5.773-5.776 3.19 0 5.775 2.586 5.775 5.776z" fill-rule="evenodd" stroke="#d2d8df" stroke-linecap="round" stroke-width="2.921"/><path clip-rule="evenodd" d="m234.069 69.8845c0 3.8182-3.093 6.9109-6.909 6.9109-3.815 0-6.909-3.0927-6.909-6.9109 0-3.8164 3.094-6.9109 6.909-6.9109 3.816 0 6.909 3.0945 6.909 6.9109z" fill-rule="evenodd" stroke="#d2d8df" stroke-linecap="round" stroke-width="2.921"/><path clip-rule="evenodd" d="m410.305 593.438c-4.415 1.68-9.356-.539-11.036-4.953-1.679-4.416.537-9.36 4.953-11.039 4.414-1.68 9.355.537 11.034 4.953 1.682 4.416-.536 9.359-4.951 11.039z" fill-rule="evenodd" stroke="#d2d8df" stroke-linecap="round" stroke-width="2.921"/><path clip-rule="evenodd" d="m289.29 450.6h39.487l-20.684 65.813 92.14-93.077h-55.474l31.028-136.329z" fill="url(#a)" fill-rule="evenodd"/><path clip-rule="evenodd" d="m525.503 245.636c-9.736-6.918-21.102-11.686-33.42-13.588-6.738-58.866-56.711-104.583-117.381-104.583-37.807 0-71.459 17.763-93.093 45.398-7.59-2.543-15.694-3.931-24.143-3.931-38.791 0-70.78 29.078-75.398 66.624-32.102 9.952-55.412 39.881-55.412 75.246 0 43.378 35.061 78.556 78.398 78.76 2.232.301 4.5.476 6.815.476h257.586c4.756.891 9.635 1.377 14.648 1.377 43.51 0 78.769-35.265 78.769-78.768 0-28.317-14.945-53.131-37.369-67.011z" fill="#f1f2f7" fill-rule="evenodd"/><path clip-rule="evenodd" d="m306.532 201.022c-9.116-3.699-19.26-5.776-29.953-5.776-39.599 0-71.689 28.266-71.689 63.127 0 3.526.336 6.978.97 10.341 30.789-43.493 52.004-60.766 100.672-67.692z" fill="#e0e2ee" fill-rule="evenodd"/></svg>