<svg fill="none" height="693" viewBox="0 0 792 693" width="792" xmlns="http://www.w3.org/2000/svg" xmlns:xlink="http://www.w3.org/1999/xlink"><linearGradient id="a" gradientUnits="userSpaceOnUse" x1="595.29" x2="595.29" y1="129.961" y2="235.318"><stop offset="0" stop-color="#fad961"/><stop offset="1" stop-color="#f76b1c"/></linearGradient><linearGradient id="b"><stop offset="0" stop-color="#ff8960"/><stop offset="1" stop-color="#ff62a5"/></linearGradient><linearGradient id="c" gradientUnits="userSpaceOnUse" x1="124.158" x2="55.2691" xlink:href="#b" y1="196.218" y2="265.28"/><linearGradient id="d" gradientUnits="userSpaceOnUse" x1="385.544" x2="355.196" xlink:href="#b" y1="427.697" y2="489.009"/><linearGradient id="e" gradientUnits="userSpaceOnUse" x1="538.099" x2="505.633" xlink:href="#b" y1="260.661" y2="266.456"/><linearGradient id="f" gradientUnits="userSpaceOnUse" x1="568.029" x2="536.118" xlink:href="#b" y1="266.337" y2="272.328"/><linearGradient id="g" gradientUnits="userSpaceOnUse" x1="308.061" x2="239.65" xlink:href="#b" y1="222.72" y2="258.341"/><linearGradient id="h" gradientUnits="userSpaceOnUse" x1="280.099" x2="217.779" xlink:href="#b" y1="212.342" y2="242.298"/><path clip-rule="evenodd" d="m503.787 467.026-2.303 9.071-227.312-57.398 2.3-9.071c18.187 4.591 32.295-12.884 34.577-21.862l13.117-51.699c10.388-37.624 44.734-63.658 83.86-63.562 3.35-12.479 16.212-19.882 28.72-16.537 12.51 3.345 19.935 16.172 16.578 28.651 34.313 19.104 51.901 58.482 43.185 96.702l-12.703 50.067c-2.696 10.61 10.89 33.341 19.981 35.638" fill="#f1f2f7" fill-rule="evenodd"/><path clip-rule="evenodd" d="m346.973 446.728c2.183 23.149 22.763 40.154 45.971 37.98 12.64-1.183 24.075-7.982 31.137-18.511z" fill="#ffda3e" fill-rule="evenodd"/><path clip-rule="evenodd" d="m716.137 379.171c0 171.664-139.513 310.829-311.607 310.829s-311.6046-139.165-311.6046-310.829c0-171.665 139.5106-310.8302 311.6046-310.8302s311.607 139.1652 311.607 310.8302z" fill-rule="evenodd" stroke="#e9eaec" stroke-dasharray="5.02 5.02"/><path clip-rule="evenodd" d="m635.931 379.171c0 127.48-103.602 230.824-231.401 230.824-127.801 0-231.398-103.344-231.398-230.824 0-127.479 103.597-230.823 231.398-230.823 127.799 0 231.401 103.344 231.401 230.823z" fill-rule="evenodd" stroke="#e9eaec" stroke-dasharray="5.05 5.05"/><path clip-rule="evenodd" d="m623.752 166.432c4.491 0 8.124 3.621 8.124 8.104s-3.633 8.104-8.124 8.104c-4.494 0-8.127-3.621-8.127-8.104s3.633-8.104 8.127-8.104zm24.373 0c4.494 0 8.124 3.621 8.124 8.104s-3.63 8.104-8.124 8.104c-4.495 0-8.125-3.621-8.125-8.104s3.63-8.104 8.125-8.104zm24.372 0c4.495 0 8.124 3.621 8.124 8.104s-3.629 8.104-8.124 8.104c-4.494 0-8.124-3.621-8.124-8.104s3.63-8.104 8.124-8.104zm-57.836 52.678h38.772c3.656 0 3.656.027 5.407 1.318 1.753 1.29 21.76 14.89 21.76 14.89v-16.208h.937c10.712 0 19.371-8.053 19.371-18.083v-52.906c0-10.029-8.68-18.16-19.371-18.16h-66.876c-10.688 0-19.371 8.131-19.371 18.16v52.906c0 10.03 8.683 18.083 19.371 18.083z" fill="url(#a)" fill-rule="evenodd"/><path clip-rule="evenodd" d="m145.389 259.808c0 2.931-2.372 5.297-5.314 5.297-2.936 0-5.308-2.366-5.308-5.297 0-2.932 2.372-5.301 5.308-5.301 2.942 0 5.314 2.369 5.314 5.301zm-15.936 0c0 2.931-2.375 5.297-5.311 5.297-2.94 0-5.314-2.366-5.314-5.297 0-2.932 2.374-5.301 5.314-5.301 2.936 0 5.311 2.369 5.311 5.301zm-15.936 0c0 2.931-2.375 5.297-5.314 5.297-2.937 0-5.312-2.366-5.312-5.297 0-2.932 2.375-5.301 5.312-5.301 2.939 0 5.314 2.369 5.314 5.301zm45.172 17.322v-34.593c0-6.558-5.68-11.874-12.667-11.874h-43.728c-6.9893 0-12.6666 5.316-12.6666 11.874v34.593c0 6.556 5.6623 11.821 12.6666 11.821h.615v10.601s13.081-8.894 14.225-9.739c1.147-.844 1.147-.862 3.537-.862h25.351c6.987 0 12.667-5.265 12.667-11.821z" fill="url(#c)" fill-rule="evenodd"/><path clip-rule="evenodd" d="m346.991 446.78c2.182 23.15 22.763 40.154 45.971 37.98 12.639-1.183 24.075-7.981 31.136-18.511z" fill="url(#d)" fill-rule="evenodd"/><path clip-rule="evenodd" d="m530.268 307.692c5.293 6.352 9.268 13.833 11.97 21.763 2.753 7.933 4.098 16.361 4.236 24.794 0 4.22-.303 8.433-.85 12.611-.72 4.157-1.552 8.284-2.861 12.282-2.531 7.999-6.356 15.585-11.568 22.041-.225.279-.627.321-.906.099-.216-.177-.288-.464-.204-.716 2.714-7.705 4.962-15.306 6.473-23.018.279-1.946.663-3.863.987-5.789.222-1.943.517-3.872.685-5.812.126-1.944.378-3.876.459-5.819.03-1.947.123-3.891.114-5.834.045-7.784-.825-15.555-2.342-23.27-1.558-7.72-3.902-15.324-6.719-23.03-.057-.158.024-.335.183-.392.127-.048.262-.006.343.09" fill="url(#e)" fill-rule="evenodd"/><path clip-rule="evenodd" d="m560.08 310.391c5.109 5.873 8.958 12.838 11.639 20.233 2.687 7.403 4.24 15.267 4.516 23.179.3 7.91-.667 15.861-2.786 23.435-2.117 7.57-5.416 14.806-10.07 21.041-.03.039-.087.048-.123.021-.03-.024-.042-.063-.033-.096 1.927-7.505 3.543-14.806 4.521-22.146.979-7.338 1.3-14.672 1.027-21.979-.3-7.304-1.186-14.585-2.744-21.811-1.552-7.236-3.747-14.375-6.248-21.703-.03-.093.018-.192.111-.225.069-.024.145-.003.19.051" fill="url(#f)" fill-rule="evenodd"/><path clip-rule="evenodd" d="m287.593 347.869c-1.622-8.053-1.64-16.465-.355-24.689 1.243-8.244 3.915-16.282 7.626-23.79 3.801-7.463 8.659-14.408 14.525-20.35 5.825-5.963 12.58-11.015 20.032-14.543.135-.063.291-.006.354.126.051.108.024.234-.063.312-6.062 5.489-11.643 11.212-16.576 17.408-4.897 6.209-9.229 12.806-12.73 19.829-3.596 6.978-6.34 14.372-8.427 22-2.054 7.645-3.32 15.537-4.128 23.685-.009.069-.072.123-.144.117-.057-.006-.102-.051-.114-.105" fill="url(#g)" fill-rule="evenodd"/><path clip-rule="evenodd" d="m262.144 331.944c-1.534-7.562-1.561-15.442-.448-23.156 1.15-7.715 3.447-15.295 6.837-22.353 3.353-7.071 7.683-13.686 12.891-19.481 5.185-5.804 11.178-10.877 17.855-14.711-5.452 5.415-10.46 11.063-14.828 17.136-4.354 6.08-8.139 12.492-11.208 19.236-3.038 6.753-5.476 13.767-7.214 21.005-1.787 7.236-2.858 14.66-3.63 22.312-.009.069-.069.119-.144.113-.054-.006-.102-.047-.111-.101" fill="url(#h)" fill-rule="evenodd"/><path clip-rule="evenodd" d="m503.804 467.076s-13.444-5.211-20.511-12.647c-9.842-10.353-9.193-21.649-2.54-43.452 7.827-25.961 7.614-53.31 4.599-65.846-10.499-43.682-32.01-60.462-32.01-60.462 34.313 19.104 51.901 58.482 43.185 96.702l-12.703 50.067c-2.227 7.397 10.889 33.341 19.98 35.638l-2.302 9.071z" fill="#d8dbea" fill-rule="evenodd"/><g stroke="#d2d8df" stroke-linecap="round"><path d="m34.058 421.02-5.7854-.176"/><path d="m29.9077 410.077-4.1492 3.866"/><path d="m19.0935 405.085-.0871 5.642"/><path d="m7.94777 408.955 4.02903 4.115"/><path d="m3 419.432 5.7824.176"/><path d="m7.14886 430.373 4.15214-3.866"/><path d="m17.9646 435.378.0871-5.643"/><path d="m29.1103 431.501-4.0291-4.115"/><path d="m788.541 340.582-2.543 2.746"/><path d="m776.602 342.97 1.918 1.764"/><path d="m774.667 355.138 2.543-2.746"/><path d="m786.603 352.752-1.916-1.764"/><path d="m555.632 17.8132-6.152-.1648"/><path d="m539.714 3-.093 5.24389"/><path d="m522.595 16.3418 6.152.1617"/><path d="m538.512 31.1511.093-5.2439"/></g><path clip-rule="evenodd" d="m100.085 584.011c-4.4254 1.321-11.7961 7.808-14.318 15.498-.4233-7.145-4.9718-16.127-9.9766-17.421 6.1067-2.153 12.7207-10.068 14.4801-16.737-.3183 6.989 6.0436 17.139 9.8145 18.66" fill="#ebecef" fill-rule="evenodd"/><path clip-rule="evenodd" d="m203.731 45.9007c-3.414.602-9.463 4.7947-12.009 10.3051.303-5.3577-2.306-12.4404-5.921-13.8359 4.735-1.0782 10.349-6.4029 12.238-11.2185-.844 5.181 3.014 13.2909 5.692 14.7493" fill="#ebecef" fill-rule="evenodd"/><path clip-rule="evenodd" d="m656.176 84.8081c-4.56-.0988-8.175-3.8633-8.073-8.4094.099-4.5461 3.873-8.1518 8.427-8.053 4.561.0989 8.176 3.8633 8.077 8.4094-.103 4.5461-3.873 8.1519-8.431 8.053" fill="#d1d9e0" fill-rule="evenodd"/><path clip-rule="evenodd" d="m656.197 624.328c-3.966-.084-7.113-3.363-7.029-7.319.085-3.96 3.372-7.098 7.341-7.014 3.969.087 7.115 3.363 7.028 7.322-.087 3.956-3.371 7.098-7.34 7.011" fill="#ebecef" fill-rule="evenodd"/><path clip-rule="evenodd" d="m59.5099 194.075c-2.4558-.054-4.4043-2.082-4.3503-4.534.0511-2.45 2.0866-4.391 4.5425-4.34 2.4558.054 4.4043 2.082 4.3533 4.531-.0541 2.453-2.0896 4.397-4.5455 4.343z" fill-rule="evenodd" stroke="#d2d8df" stroke-linecap="round"/></svg>