<svg fill="none" height="693" viewBox="0 0 792 693" width="792" xmlns="http://www.w3.org/2000/svg" xmlns:xlink="http://www.w3.org/1999/xlink"><filter id="a" color-interpolation-filters="sRGB" filterUnits="userSpaceOnUse" height="300.735" width="323" x="262.232" y="197.183"><feFlood flood-opacity="0" result="BackgroundImageFix"/><feColorMatrix in="SourceAlpha" result="hardAlpha" type="matrix" values="0 0 0 0 0 0 0 0 0 0 0 0 0 0 0 0 0 0 127 0"/><feOffset dy="20"/><feGaussianBlur stdDeviation="11"/><feColorMatrix type="matrix" values="0 0 0 0 0.0469255 0 0 0 0 0.264214 0 0 0 0 0.449378 0 0 0 0.5 0"/><feBlend in2="BackgroundImageFix" mode="normal" result="effect1_dropShadow_481_3176"/><feBlend in="SourceGraphic" in2="effect1_dropShadow_481_3176" mode="normal" result="shape"/></filter><filter id="b" color-interpolation-filters="sRGB" filterUnits="userSpaceOnUse" height="302.648" width="244.606" x="180.538" y="254.76"><feFlood flood-opacity="0" result="BackgroundImageFix"/><feColorMatrix in="SourceAlpha" result="hardAlpha" type="matrix" values="0 0 0 0 0 0 0 0 0 0 0 0 0 0 0 0 0 0 127 0"/><feOffset dy="2"/><feColorMatrix type="matrix" values="0 0 0 0 0.234731 0 0 0 0 0.347049 0 0 0 0 0.474516 0 0 0 1 0"/><feBlend in2="BackgroundImageFix" mode="normal" result="effect1_dropShadow_481_3176"/><feBlend in="SourceGraphic" in2="effect1_dropShadow_481_3176" mode="normal" result="shape"/></filter><filter id="c" color-interpolation-filters="sRGB" filterUnits="userSpaceOnUse" height="308.909" width="186.535" x="424.775" y="248.499"><feFlood flood-opacity="0" result="BackgroundImageFix"/><feColorMatrix in="SourceAlpha" result="hardAlpha" type="matrix" values="0 0 0 0 0 0 0 0 0 0 0 0 0 0 0 0 0 0 127 0"/><feOffset dy="2"/><feColorMatrix type="matrix" values="0 0 0 0 0.234731 0 0 0 0 0.347049 0 0 0 0 0.474516 0 0 0 1 0"/><feBlend in2="BackgroundImageFix" mode="normal" result="effect1_dropShadow_481_3176"/><feBlend in="SourceGraphic" in2="effect1_dropShadow_481_3176" mode="normal" result="shape"/></filter><linearGradient id="d" gradientUnits="userSpaceOnUse" x1="307.631" x2="404.462" y1="139.716" y2="204.129"><stop offset="0" stop-color="#cdd6de"/><stop offset="1" stop-color="#9facba"/></linearGradient><linearGradient id="e" gradientUnits="userSpaceOnUse" x1="451.703" x2="433.839" y1="184.404" y2="264.9"><stop offset="0" stop-color="#d8e2ea"/><stop offset="1" stop-color="#b0c1d0"/></linearGradient><linearGradient id="f"><stop offset="0" stop-color="#ffe7c2"/><stop offset="1" stop-color="#ffcb8f"/></linearGradient><linearGradient id="g" gradientUnits="userSpaceOnUse" x1="372.448" x2="331.695" xlink:href="#f" y1="151.062" y2="240.483"/><linearGradient id="h" gradientUnits="userSpaceOnUse" x1="474.509" x2="515.262" xlink:href="#f" y1="151.062" y2="240.483"/><linearGradient id="i" gradientUnits="userSpaceOnUse" x1="1024.94" x2="1016.19" y1="642.077" y2="742.254"><stop offset="0" stop-color="#ffe2b9"/><stop offset="1" stop-color="#ffc083"/></linearGradient><linearGradient id="j"><stop offset="0" stop-color="#fff" stop-opacity=".01"/><stop offset="1" stop-color="#132e3c"/></linearGradient><linearGradient id="k" gradientUnits="userSpaceOnUse" x1="292.8" x2="349.293" xlink:href="#j" y1="491.656" y2="380.618"/><linearGradient id="l"><stop offset="0" stop-color="#7b86a4"/><stop offset="1" stop-color="#454e6b"/></linearGradient><linearGradient id="m" gradientUnits="userSpaceOnUse" x1="220.662" x2="208.924" xlink:href="#l" y1="391.238" y2="455.207"/><linearGradient id="n" gradientUnits="userSpaceOnUse" x1="335.475" x2="323.544" xlink:href="#l" y1="422.141" y2="486.616"/><linearGradient id="o" gradientUnits="userSpaceOnUse" x1="281.577" x2="261.485" xlink:href="#l" y1="403.421" y2="466.349"/><linearGradient id="p" gradientUnits="userSpaceOnUse" x1="525.699" x2="459.286" xlink:href="#j" y1="490.397" y2="392.909"/><linearGradient id="q"><stop offset="0" stop-color="#f1f6fa"/><stop offset="1" stop-color="#deeaf4"/></linearGradient><linearGradient id="r" gradientUnits="userSpaceOnUse" x1="554.592" x2="583.459" xlink:href="#q" y1="281.187" y2="375.653"/><linearGradient id="s" gradientUnits="userSpaceOnUse" x1="185.225" x2="179.869" xlink:href="#q" y1="267.635" y2="380.129"/><mask id="t" height="160" maskUnits="userSpaceOnUse" width="307" x="120" y="252"><path clip-rule="evenodd" d="m181.536 252.674-61.536 94.961 237.842 63.689 69.021-102.064z" fill="#fff" fill-rule="evenodd"/></mask><path clip-rule="evenodd" d="m716.137 379.17c0 171.664-139.513 310.829-311.607 310.829s-311.6047-139.165-311.6047-310.829 139.5107-310.8292 311.6047-310.8292 311.607 139.1652 311.607 310.8292z" fill-rule="evenodd" stroke="#e9eaec" stroke-dasharray="5.02 5.02"/><path clip-rule="evenodd" d="m635.931 379.171c0 127.479-103.602 230.824-231.401 230.824-127.801 0-231.398-103.345-231.398-230.824s103.597-230.823 231.398-230.823c127.799 0 231.401 103.344 231.401 230.823z" fill-rule="evenodd" stroke="#e9eaec" stroke-dasharray="5.05 5.05"/><g stroke="#d2d8df" stroke-linecap="round"><path d="m34.058 421.02-5.7854-.176"/><path d="m29.9077 410.077-4.1492 3.866"/><path d="m19.0934 405.082-.0871 5.642"/><path d="m7.94788 408.955 4.02902 4.115"/><path d="m3 419.435 5.7824.176"/><path d="m7.1488 430.376 4.1522-3.866"/><path d="m17.9645 435.375.087-5.643"/><path d="m29.1101 431.498-4.029-4.115"/><path d="m788.541 340.582-2.543 2.746"/><path d="m776.602 342.967 1.919 1.764"/><path d="m774.667 355.138 2.542-2.746"/><path d="m786.603 352.749-1.916-1.764"/><path d="m555.632 17.8132-6.152-.1648"/><path d="m539.714 3-.093 5.24388"/><path d="m522.595 16.3389 6.152.1617"/><path d="m538.512 31.1511.093-5.2439"/></g><path clip-rule="evenodd" d="m100.085 584.008c-4.4256 1.321-11.7962 7.808-14.3181 15.498-.4233-7.145-4.9718-16.127-9.9766-17.42 6.1066-2.154 12.7207-10.069 14.48-16.738-.3182 6.989 6.0436 17.139 9.8147 18.66z" fill="#ebecef" fill-rule="evenodd"/><path clip-rule="evenodd" d="m203.731 45.9007c-3.413.602-9.463 4.7947-12.009 10.3051.303-5.3577-2.306-12.4404-5.92-13.8359 4.734-1.0782 10.348-6.4029 12.237-11.2185-.844 5.181 3.014 13.2908 5.692 14.7493z" fill="#ebecef" fill-rule="evenodd"/><path clip-rule="evenodd" d="m656.176 84.8081c-4.561-.0988-8.175-3.8633-8.073-8.4094.099-4.5461 3.873-8.1518 8.427-8.053 4.561.0989 8.175 3.8633 8.076 8.4094-.102 4.5461-3.873 8.1518-8.43 8.053z" fill="#d1d9e0" fill-rule="evenodd"/><path clip-rule="evenodd" d="m656.197 624.328c-3.966-.084-7.113-3.363-7.029-7.319.084-3.96 3.372-7.098 7.341-7.014 3.969.087 7.115 3.363 7.028 7.322-.087 3.956-3.371 7.098-7.34 7.011z" fill="#ebecef" fill-rule="evenodd"/><path clip-rule="evenodd" d="m59.5097 194.078c-2.4558-.054-4.4043-2.082-4.3503-4.534.0511-2.45 2.0866-4.391 4.5425-4.34 2.4559.054 4.4043 2.081 4.3533 4.531-.054 2.453-2.0896 4.397-4.5455 4.343z" fill-rule="evenodd" stroke="#d2d8df" stroke-linecap="round"/><path clip-rule="evenodd" d="m364.985 192.135-184.447 62.847v229.625l182.359-62.847z" fill="url(#d)" fill-rule="evenodd"/><path clip-rule="evenodd" d="m364.238 192.135 244.606 56.585v229.625l-244.606-56.585z" fill="url(#e)" fill-rule="evenodd"/><g filter="url(#a)"><path clip-rule="evenodd" d="m356.663 203.183s53.848 22.505 54.065 40.301c.195 15.918-40.477 36.642-53.24 27.128-14.27-10.637-.825-67.429-.825-67.429z" fill="url(#g)" fill-rule="evenodd"/><path clip-rule="evenodd" d="m364.476 218.516s27.8 11.619 27.912 20.806c.101 8.218-20.897 18.916-27.486 14.005-7.366-5.492-.426-34.811-.426-34.811z" fill="#fba581" fill-rule="evenodd"/><path clip-rule="evenodd" d="m490.294 203.183s-53.848 22.505-54.066 40.301c-.194 15.918 40.478 36.642 53.241 27.128 14.269-10.637.825-67.429.825-67.429z" fill="url(#h)" fill-rule="evenodd"/><path clip-rule="evenodd" d="m482.98 218.516s-27.8 11.619-27.912 20.806c-.101 8.218 20.897 18.916 27.486 14.005 7.367-5.492.426-34.811.426-34.811z" fill="#fba581" fill-rule="evenodd"/><ellipse cx="424.297" cy="295.638" fill="url(#i)" rx="89.0666" ry="63.4344"/><path d="m398.627 254.012c.229-2.184.861-8.195.861-8.195" stroke="#fff" stroke-linecap="round" stroke-width="1.46625"/><path d="m389.196 254.711c-.238-1.503-1.313-8.289-1.313-8.289" stroke="#fff" stroke-linecap="round" stroke-width="1.46625"/><path d="m448.609 254.053c-.23-2.184-.862-8.195-.862-8.195" stroke="#fff" stroke-linecap="round" stroke-width="1.46625"/><path d="m458.039 254.752c.238-1.503 1.313-8.289 1.313-8.289" stroke="#fff" stroke-linecap="round" stroke-width="1.46625"/><g clip-rule="evenodd" fill-rule="evenodd"><path d="m401.418 236.284s9.419-8.002 23.795-13.047c-3.977 3.87-7.852 6.255-8.147 14.232-.295 7.978-15.648-1.185-15.648-1.185z" fill="#ffd29f"/><path d="m413.943 232.148s11.511-4.499 26.746-4.589c-5.02 2.364-9.46 3.357-12.336 10.804-2.877 7.447-14.41-6.215-14.41-6.215z" fill="#ffd29f"/><path d="m355.944 266.092s-10.632 6.301-20.083 18.251c4.954-2.501 8.471-5.388 16.11-3.07s3.973-15.181 3.973-15.181z" fill="#ffc083"/><path d="m351.041 277.436s-10.632 6.301-20.083 18.25c4.954-2.5 8.471-5.388 16.11-3.069 7.639 2.318 3.973-15.181 3.973-15.181z" fill="#ffc083"/><path d="m353.308 284.835s-20.287 7.762-23.143 27.332c5.477-7.537 9.343-10.483 21.357-9.878 12.015.605 1.786-17.454 1.786-17.454z" fill="#ffc083"/><path d="m338.282 302.487s-6.794 10.324-10.05 25.208c3.356-4.419 5.251-8.556 13.134-9.821 7.882-1.265-3.084-15.387-3.084-15.387z" fill="#ffc083"/><path d="m338.848 314.833s-6.794 10.324-10.05 25.207c3.356-4.419 5.251-8.555 13.133-9.82s-3.083-15.387-3.083-15.387z" fill="#ffc083"/><path d="m344.129 320.491s-14.831 15.87-8.819 34.711c1.619-9.175 3.802-13.517 14.866-18.24 11.063-4.723-6.047-16.471-6.047-16.471z" fill="#ffc083"/><path d="m364.921 308.239s-1.367 12.284 2.489 27.023c.984-5.461.795-10.007 7.244-14.713 6.448-4.706-9.733-12.31-9.733-12.31z" fill="#ffc083"/><path d="m371.029 318.98s-1.367 12.283 2.489 27.022c.984-5.461.795-10.007 7.244-14.713 6.448-4.705-9.733-12.309-9.733-12.309z" fill="#ffc083"/><path d="m378.304 321.624s-6.011 20.873 7.9 34.931c-2.723-8.91-2.749-13.77 4.965-23.001 7.713-9.231-12.865-11.93-12.865-11.93z" fill="#ffc083"/><path d="m382.04 339.975s4.76 11.405 15.279 22.427c-1.787-5.253-4.157-9.138-.798-16.38s-14.481-6.047-14.481-6.047z" fill="#ffc083"/><path d="m392.59 346.408s4.76 11.406 15.278 22.428c-1.786-5.254-4.156-9.138-.797-16.38s-14.481-6.048-14.481-6.048z" fill="#ffc083"/><path d="m400.235 345.195s4.863 21.17 23.845 26.722c-6.701-6.474-9.08-10.711-6.809-22.525 2.271-11.813-17.036-4.197-17.036-4.197z" fill="#ffc083"/><path d="m491.519 266.092s10.632 6.301 20.083 18.251c-4.954-2.501-8.47-5.388-16.109-3.07s-3.974-15.181-3.974-15.181z" fill="#ffc083"/><path d="m496.422 277.436s10.632 6.301 20.083 18.25c-4.954-2.5-8.471-5.388-16.11-3.069-7.638 2.318-3.973-15.181-3.973-15.181z" fill="#ffc083"/><path d="m494.156 284.835s20.287 7.762 23.143 27.332c-5.478-7.537-9.343-10.483-21.358-9.878-12.014.605-1.785-17.454-1.785-17.454z" fill="#ffc083"/><path d="m509.182 302.487s6.794 10.324 10.049 25.208c-3.356-4.419-5.251-8.556-13.133-9.821s3.084-15.387 3.084-15.387z" fill="#ffc083"/><path d="m508.616 314.833s6.794 10.324 10.05 25.207c-3.357-4.419-5.252-8.555-13.134-9.82s3.084-15.387 3.084-15.387z" fill="#ffc083"/><path d="m503.334 320.491s14.832 15.87 8.82 34.711c-1.62-9.175-3.803-13.517-14.866-18.24-11.064-4.723 6.046-16.471 6.046-16.471z" fill="#ffc083"/><path d="m490.042 308.239s1.366 12.284-2.49 27.023c-.984-5.461-.795-10.007-7.243-14.713-6.449-4.706 9.733-12.31 9.733-12.31z" fill="#ffc083"/><path d="m483.934 318.98s1.366 12.283-2.49 27.022c-.984-5.461-.795-10.007-7.243-14.713-6.449-4.705 9.733-12.309 9.733-12.309z" fill="#ffc083"/><path d="m476.659 321.624s6.01 20.873-7.9 34.931c2.722-8.91 2.748-13.77-4.965-23.001-7.714-9.231 12.865-11.93 12.865-11.93z" fill="#ffc083"/><path d="m472.925 339.972s-4.76 11.405-15.278 22.427c1.786-5.253 4.156-9.138.797-16.38s14.481-6.047 14.481-6.047z" fill="#ffc083"/><path d="m462.375 346.405s-4.76 11.406-15.278 22.428c1.786-5.254 4.156-9.138.797-16.38s14.481-6.048 14.481-6.048z" fill="#ffc083"/><path d="m454.73 345.192s-4.863 21.17-23.845 26.722c6.701-6.474 9.08-10.711 6.809-22.525-2.271-11.813 17.036-4.197 17.036-4.197z" fill="#ffc083"/></g><path d="m412.609 278.128c0 8.779-7.184 15.934-16.094 15.934s-16.094-7.155-16.094-15.934c0-8.778 7.184-15.934 16.094-15.934s16.094 7.156 16.094 15.934z" fill="#fff" stroke="#e5ab74" stroke-width="1.8"/><path d="m390.795 282.083c1.36-6.3 11.065-6.405 12.829 0" stroke="#767676" stroke-linecap="round" stroke-width="1.56"/><path d="m468.173 278.128c0 8.779-7.184 15.934-16.094 15.934s-16.094-7.155-16.094-15.934c0-8.778 7.184-15.934 16.094-15.934s16.094 7.156 16.094 15.934z" fill="#fff" stroke="#e5ab74" stroke-width="1.8"/><path d="m446.359 282.083c1.36-6.3 11.065-6.405 12.829 0" stroke="#767676" stroke-linecap="round" stroke-width="1.56"/><ellipse cx="418.149" cy="302.227" fill="#fff" rx="5.20502" ry="4.5272"/><ellipse fill="#fff" rx="1.73501" ry="1.50907" transform="matrix(-3 0 0 3 430.822 302.227)"/><path d="m436.095 303.821c-2.896 4.094-11.724 2.825-11.334-5.573" stroke="#e08063" stroke-linecap="round" stroke-width="1.404"/><path d="m412.982 303.821c2.896 4.094 11.724 2.825 11.333-5.573" stroke="#e08063" stroke-linecap="round" stroke-width="1.404"/><path d="m419.884 297.732h8.864" stroke="#78625b" stroke-linecap="round" stroke-width="1.404"/><path d="m398.045 305.212c-5.25 0-28.943 0-28.943 0" stroke="#fff" stroke-linecap="round" stroke-width="1.38"/><path d="m397.685 311.513c-3.106.66-17.12 3.639-17.12 3.639" stroke="#fff" stroke-linecap="round" stroke-width="1.38"/><path d="m452.184 305.212h28.942" stroke="#fff" stroke-linecap="round" stroke-width="1.38"/><path d="m452.543 311.513c3.106.66 17.121 3.639 17.121 3.639" stroke="#fff" stroke-linecap="round" stroke-width="1.38"/></g><path clip-rule="evenodd" d="m180.538 254.76 244.605 56.585v240.062l-244.605-67.022z" fill="#deeaf4" fill-rule="evenodd"/><g filter="url(#b)" opacity=".133718"><path clip-rule="evenodd" d="m180.538 254.76 244.605 56.585v240.062l-244.605-67.022z" fill="url(#k)" fill-rule="evenodd"/></g><path clip-rule="evenodd" d="m242.508 450.832-23.307-6.286v-6.936l16.877-43 12.4-4.522-17.566 49.504 11.596 1.962v-19.619l11.711-.507v22.107l5.625.952v11.021l-5.625-1.518v11.544l-11.711-4.458z" fill="url(#m)" fill-rule="evenodd" opacity=".2"/><path clip-rule="evenodd" d="m357.32 482.619-23.307-5.65v-7.349l16.878-44.574 12.4-4.065-17.567 50.42 11.596 1.764v-19.992l11.711-.456v22.229l5.626.855v11.021l-5.626-1.364v11.607l-11.711-4.007z" fill="url(#n)" fill-rule="evenodd" opacity=".2"/><path clip-rule="evenodd" d="m281.801 421.194c.144-2.482.75-4.707 1.818-6.685 1.067-1.99 2.444-3.73 4.129-5.222 1.686-1.505 3.6-2.702 5.744-3.587 2.144-.894 4.363-1.422 6.656-1.576 2.293-.153 4.47.091 6.53.737 2.06.657 3.852 1.695 5.377 3.118 1.525 1.436 2.709 3.204 3.553 5.3.843 2.107 1.193 4.539 1.048 7.289l-2.511 47.53c-.145 2.708-.751 5.049-1.818 7.015-1.068 1.953-2.444 3.548-4.13 4.782-1.685 1.221-3.599 2.041-5.744 2.464-2.144.414-4.362.429-6.655.05-2.293-.378-4.47-1.106-6.53-2.18-2.06-1.062-3.852-2.404-5.377-4.022-1.526-1.604-2.71-3.422-3.553-5.456-.843-2.024-1.193-4.251-1.049-6.692zm9.183 44.181c-.088 1.547.374 2.895 1.386 4.05 1.012 1.162 2.359 1.856 4.041 2.078 1.681.223 3.086-.117 4.214-1.025 1.129-.914 1.737-2.174 1.825-3.774l2.512-45.965c.088-1.625-.374-2.96-1.386-4-1.012-1.034-2.359-1.52-4.041-1.463-1.681.058-3.086.629-4.214 1.707-1.129 1.072-1.737 2.391-1.825 3.962z" fill="url(#o)" fill-rule="evenodd" opacity=".2"/><path clip-rule="evenodd" d="m611.31 248.499-186.535 62.847v240.063l184.448-73.285z" fill="#d2dee9" fill-rule="evenodd"/><g filter="url(#c)" opacity=".133718"><path clip-rule="evenodd" d="m611.31 248.499-186.535 62.847v240.063l184.448-73.285z" fill="url(#p)" fill-rule="evenodd"/></g><path clip-rule="evenodd" d="m610.535 248.329 65.214 90.912-188.773 74.516-62.702-104.013z" fill="url(#r)" fill-rule="evenodd"/><g clip-rule="evenodd" fill="#acbbcb" fill-rule="evenodd" opacity=".6"><path d="m443.607 401.206-.843 10.423-1.505 7.397.543 6.359 1.361 9.564-1.603 86.498 1.881-26.904 3.508-2.324-2.522-11.775.456-45.375-.445-11.422 1.544-4.29-1.198-7.587.163-31.352z"/><path d="m457.537 477.209-.604-11.694.826-43.109-1.632 13.288-1.288-4.335.433 11.298-.051 22.648-.952 7.76 1.258 3.897.117 15.662z"/><path d="m464.566 502.853.922-9.466-.863-6.793.424-5.764.985-8.646.067-78.774.857 24.559.104 7.925.346 4.945-.28 41.307.207 10.072.294 4.271-.856 6.853-.29 28.535z"/></g><path clip-rule="evenodd" d="m181.536 252.674-61.536 94.961 237.842 63.689 69.021-102.064z" fill="url(#s)" fill-rule="evenodd"/><g mask="url(#t)"><g clip-rule="evenodd" fill="#acbbcb" fill-rule="evenodd" opacity=".4"><path d="m242.297 325.448 6.239-8.393 5.196-5.475 2.909-5.681 3.914-8.831 47.197-72.505-15.853 21.819-4.206.111-4.101 11.323-24.432 38.238-5.675 9.923-3.583 2.82-3.004 7.068-16.752 26.502z"/><path d="m270.76 253.611-5.685 10.237-23.544 36.121 8.426-10.404-1.206 4.359 5.621-9.811 12.044-19.18 4.92-6.076.998-3.972 8.2-13.344z"/><path d="m278.389 228.137-5.797 7.54-2.868 6.218-3.415 4.663-5.416 6.81-41.801 66.769 12.287-21.282 4.112-6.775 2.327-4.377 22.126-34.882 5.163-8.651 2.013-3.778 4.358-5.358 15.367-24.045z"/></g></g></svg>