<svg width="18" height="18" viewBox="0 0 18 18" fill="none" xmlns="http://www.w3.org/2000/svg">
<path fill-rule="evenodd" clip-rule="evenodd" d="M17.7415 16.4992L14.2175 13.1108C15.5273 11.5343 16.1815 9.51767 16.0456 7.47532C15.9097 5.43297 14.994 3.5201 13.4868 2.12985C11.9796 0.739609 9.99529 -0.0223879 7.9418 0.000501105C5.88831 0.0233901 3.92163 0.829432 2.44597 2.25292C0.970313 3.67641 0.0977789 5.60921 0.00773146 7.65408C-0.082316 9.69895 0.616961 11.7005 1.96182 13.2474C3.30667 14.7943 5.19494 15.7689 7.23853 15.9711C9.28211 16.1732 11.3257 15.5874 12.9494 14.3341L16.4932 17.7423C16.6587 17.9073 16.8833 18 17.1173 18C17.3514 18 17.5759 17.9073 17.7415 17.7423C17.907 17.5773 18 17.3536 18 17.1203C18 16.8869 17.907 16.6632 17.7415 16.4982V16.4992ZM8.07173 14.343C6.83083 14.343 5.6178 13.9763 4.58603 13.2891C3.55426 12.602 2.75009 11.6254 2.27522 10.4827C1.80035 9.34005 1.6761 8.08271 1.91818 6.86967C2.16027 5.65664 2.75782 4.54239 3.63527 3.66784C4.51272 2.79329 5.63065 2.1977 6.84771 1.95641C8.06476 1.71512 9.32629 1.83898 10.4727 2.31228C11.6192 2.78558 12.599 3.5871 13.2884 4.61547C13.9779 5.64383 14.3458 6.85284 14.3458 8.08964C14.3458 9.74814 13.6848 11.3387 12.5082 12.5115C11.3316 13.6842 9.73573 14.343 8.07173 14.343Z" fill="black"/>
</svg>
