<svg width="24" height="24" viewBox="0 0 24 24" fill="none" xmlns="http://www.w3.org/2000/svg">
<g clip-path="url(#clip0_141_876)">
<path d="M21.9 8.89L20.49 3H16.74H14.73H13H11H9.28H7.26H3.51L2.1 8.89C1.86 9.91 2.08 10.95 2.72 11.77C2.8 11.88 2.91 11.96 3 12.06V21H21V12.06C21.09 11.97 21.2 11.88 21.28 11.78C21.92 10.96 22.15 9.91 21.9 8.89ZM7.02 5L6.44 9.86C6.36 10.51 5.84 11 5.23 11C4.74 11 4.43 10.71 4.3 10.53C4.04 10.2 3.95 9.77 4.05 9.36L5.09 5H7.02ZM18.91 5L19.96 9.36C20.06 9.78 19.97 10.2 19.71 10.53C19.57 10.71 19.27 11 18.77 11C18.16 11 17.63 10.51 17.56 9.86L16.98 5H18.91ZM15.51 9.52C15.56 9.91 15.44 10.3 15.18 10.59C14.95 10.85 14.63 11 14.22 11C13.55 11 13 10.41 13 9.69V5H14.96L15.51 9.52ZM11 9.69C11 10.41 10.45 11 9.71 11C9.37 11 9.06 10.85 8.82 10.59C8.57 10.3 8.45 9.91 8.49 9.52L9.04 5H11V9.69ZM5 19V12.97C5.08 12.98 5.15 13 5.23 13C6.1 13 6.89 12.64 7.47 12.05C8.07 12.65 8.87 13 9.78 13C10.65 13 11.43 12.64 12.01 12.07C12.6 12.64 13.4 13 14.3 13C15.14 13 15.94 12.65 16.54 12.05C17.12 12.64 17.91 13 18.78 13C18.86 13 18.93 12.98 19.01 12.97V19H5Z" fill="#9B9B9B"/>
</g>
<defs>
<clipPath id="clip0_141_876">
<rect width="24" height="24" fill="white"/>
</clipPath>
</defs>
</svg>
