<svg fill="none" height="654" viewBox="0 0 696 654" width="696" xmlns="http://www.w3.org/2000/svg" xmlns:xlink="http://www.w3.org/1999/xlink"><filter id="a" color-interpolation-filters="sRGB" filterUnits="userSpaceOnUse" height="168.764" width="389.318" x="147.856" y="406.206"><feFlood flood-opacity="0" result="BackgroundImageFix"/><feBlend in="SourceGraphic" in2="BackgroundImageFix" mode="normal" result="shape"/><feGaussianBlur result="effect1_foregroundBlur_189_2725" stdDeviation="12.0935"/></filter><filter id="b" color-interpolation-filters="sRGB" filterUnits="userSpaceOnUse" height="120" width="120" x="444" y="414"><feFlood flood-opacity="0" result="BackgroundImageFix"/><feColorMatrix in="SourceAlpha" result="hardAlpha" type="matrix" values="0 0 0 0 0 0 0 0 0 0 0 0 0 0 0 0 0 0 127 0"/><feOffset dy="2"/><feGaussianBlur stdDeviation="4"/><feColorMatrix type="matrix" values="0 0 0 0 1 0 0 0 0 0.415686 0 0 0 0 0.596078 0 0 0 0.3 0"/><feBlend in2="BackgroundImageFix" mode="normal" result="effect1_dropShadow_189_2725"/><feBlend in="SourceGraphic" in2="effect1_dropShadow_189_2725" mode="normal" result="shape"/></filter><linearGradient id="c" gradientUnits="userSpaceOnUse" x1="1440" x2="1368" y1="1260" y2="1332"><stop offset="0" stop-color="#ff8960"/><stop offset="1" stop-color="#ff62a5"/></linearGradient><g stroke="#d2d8df" stroke-linecap="round"><path d="m24.7683 299.897v6.8"/><path d="m9.49731 303.58 5.55589 5.719"/><path d="m3 318.803h7.856"/><path d="m8.86194 334.298 5.55586-5.719"/><path d="m24.7683 336.158v-6.8"/><path d="m36.1002 331.624-4.5328-4.533"/><path d="m45.166 320.294h-6.7992"/><path d="m40.6331 304.43-4.5328 4.532"/><path d="m389.657 3v4.53278"/><path d="m376.059 16.5967h4.533"/><path d="m389.657 30.1968v-4.5327"/><path d="m400.989 16.5967h-4.533"/><path d="m126.756 193.374v6.799"/><path d="m106.358 213.773h6.799"/><path d="m126.756 231.905v-6.8"/><path d="m144.887 213.773h-6.799"/><path d="m614.605 440.496c5.416 0 9.809 4.394 9.809 9.812 0 5.419-4.393 9.811-9.809 9.811s-9.809-4.392-9.809-9.811"/></g><path clip-rule="evenodd" d="m659.498 351.487c5.824-1.817 14.751-8.94 16.818-16.603 1.874 6.774 9.73 14.786 16.818 15.393-7.979 2.825-15.608 11.218-16.818 17.811-.824-6.72-11.375-15.621-16.818-16.601z" fill="#ebecee" fill-rule="evenodd"/><path clip-rule="evenodd" d="m61.649 437.476c2.9131-.908 7.375-4.468 8.4082-8.3.9371 3.385 4.8641 7.392 8.4082 7.696-3.9886 1.411-7.8021 5.608-8.4082 8.905-.4117-3.36-5.6875-7.812-8.4082-8.301z" fill="#ebecee" fill-rule="evenodd"/><path clip-rule="evenodd" d="m115.707 122.203c0 4.203-3.405 7.607-7.606 7.607-4.202 0-7.605-3.404-7.605-7.607 0-4.202 3.403-7.608 7.605-7.608 4.201 0 7.606 3.406 7.606 7.608z" fill="#d1d8df" fill-rule="evenodd"/><path clip-rule="evenodd" d="m607.165 134.417c0 2.485-2.015 4.5-4.499 4.5-2.486 0-4.501-2.015-4.501-4.5s2.015-4.5 4.501-4.5c2.484 0 4.499 2.015 4.499 4.5z" fill="#ebecee" fill-rule="evenodd"/><path clip-rule="evenodd" d="m696 55.6843c0 5.5717-4.514 10.0867-10.082 10.0867-5.57 0-10.084-4.515-10.084-10.0867 0-5.5716 4.514-10.0866 10.084-10.0866 5.568 0 10.082 4.515 10.082 10.0866z" fill="#ebecee" fill-rule="evenodd"/><path clip-rule="evenodd" d="m257.854 579.268c0 3.512-2.846 6.359-6.358 6.359-3.509 0-6.355-2.847-6.355-6.359s2.846-6.359 6.355-6.359c3.512 0 6.358 2.847 6.358 6.359z" fill-rule="evenodd" stroke="#d2d8df" stroke-linecap="round"/><path clip-rule="evenodd" d="m254.071 73.3266c0 4.2033-3.406 7.6078-7.606 7.6078s-7.606-3.4045-7.606-7.6078c0-4.2014 3.406-7.6078 7.606-7.6078s7.606 3.4064 7.606 7.6078z" fill-rule="evenodd" stroke="#d2d8df" stroke-linecap="round"/><path clip-rule="evenodd" d="m448.082 649.681c-4.86 1.85-10.299-.592-12.148-5.452-1.849-4.862.59-10.304 5.453-12.152 4.858-1.849 10.297.591 12.146 5.453 1.851 4.861-.59 10.302-5.451 12.151z" fill-rule="evenodd" stroke="#d2d8df" stroke-linecap="round"/><g filter="url(#a)"><path d="m220.417 478.767h244.196v23.6433h-244.196z" fill="#1b3554"/></g><path d="m222.386 155.643h244.196v155.652h-244.196z" fill="#e0e5ec"/><path clip-rule="evenodd" d="m222.386 155.643v236.432h-39.386v-142.969l19.696-30.245z" fill="#cfd4dc" fill-rule="evenodd"/><path clip-rule="evenodd" d="m464.614 155.643v236.432h39.386v-142.969l-19.696-30.245z" fill="#cfd4dc" fill-rule="evenodd"/><path d="m183 248.247h321v262.808c0 8.285-6.716 15-15 15h-291c-8.284 0-15-6.715-15-15z" fill="#f1f2f7"/><path clip-rule="evenodd" d="m279.497 357.69c0-1.378.708-2.66 1.932-3.293 2.725-1.408 7.931-3.696 12.991-3.696 5.058 0 10.116 2.287 12.751 3.695 1.188.634 1.866 1.891 1.866 3.237 0 3.173-3.654 5.252-6.639 4.178-2.396-.863-5.213-1.561-8.052-1.561-2.896 0-5.792.726-8.248 1.612-2.979 1.075-6.601-1.004-6.601-4.172z" fill="#1b3554" fill-rule="evenodd" opacity=".5"/><path clip-rule="evenodd" d="m379.932 357.69c0-1.378.708-2.66 1.933-3.293 2.725-1.408 7.931-3.696 12.991-3.696 5.057 0 10.115 2.287 12.751 3.695 1.187.634 1.865 1.891 1.865 3.237 0 3.173-3.654 5.252-6.638 4.178-2.396-.863-5.213-1.561-8.053-1.561-2.896 0-5.792.726-8.247 1.612-2.979 1.075-6.602-1.004-6.602-4.172z" fill="#1b3554" fill-rule="evenodd" opacity=".5"/><ellipse cx="344.485" cy="397.994" fill="#1b3554" opacity=".5" rx="31.5092" ry="13.7979"/><ellipse cx="271.62" cy="277.799" fill="#1b3554" opacity=".149343" rx="11.816" ry="11.8216"/><ellipse cx="415.38" cy="277.799" fill="#1b3554" opacity=".149343" rx="11.816" ry="11.8216"/><path d="m271.62 277.195v-73.28c0-39.718 32.182-71.915 71.88-71.915 39.699 0 71.88 32.197 71.88 71.915v73.28" stroke="#5e7085" stroke-linecap="round" stroke-linejoin="round" stroke-width="5"/><g filter="url(#b)"><ellipse cx="504" cy="468" fill="url(#c)" rx="36" ry="35.9999"/></g><path d="m494.57 478.751c3.103-2.612 5.575-4.784 7.418-6.514 1.842-1.764 3.378-3.592 4.606-5.486s1.842-3.755 1.842-5.584c0-1.665-.388-2.971-1.163-3.918-.776-.947-1.972-1.42-3.588-1.42s-2.861.555-3.733 1.665c-.873 1.077-1.326 2.563-1.358 4.457h-6.594c.129-3.918 1.277-6.89 3.442-8.914 2.198-2.025 4.978-3.037 8.34-3.037 3.685 0 6.513.996 8.485 2.988 1.971 1.959 2.957 4.555 2.957 7.788 0 2.546-.679 4.979-2.036 7.297-1.358 2.319-2.909 4.343-4.655 6.074-1.745 1.698-4.024 3.755-6.836 6.171h14.303v5.682h-23.952v-5.094z" fill="#fff"/></svg>