<svg fill="none" height="654" viewBox="0 0 696 654" width="696" xmlns="http://www.w3.org/2000/svg" xmlns:xlink="http://www.w3.org/1999/xlink"><linearGradient id="a" gradientUnits="userSpaceOnUse" x1="555.104" x2="414.587" y1="315.763" y2="456.28"><stop offset="0" stop-color="#ff8960"/><stop offset="1" stop-color="#ff62a5"/></linearGradient><linearGradient id="b" gradientUnits="userSpaceOnUse" x1="502.977" x2="457.649" y1="358.822" y2="404.15"><stop offset="0" stop-color="#ff404e"/><stop offset="1" stop-color="#ff62a5"/></linearGradient><path d="m24.7684 299.897v6.8" stroke="#d2d8df" stroke-linecap="round"/><path d="m9.4975 303.58 5.5559 5.719" stroke="#d2d8df" stroke-linecap="round"/><path d="m3 318.803h7.856" stroke="#d2d8df" stroke-linecap="round"/><path d="m8.86203 334.298 5.55587-5.719" stroke="#d2d8df" stroke-linecap="round"/><path d="m24.7684 336.158v-6.8" stroke="#d2d8df" stroke-linecap="round"/><path d="m36.1003 331.624-4.5327-4.533" stroke="#d2d8df" stroke-linecap="round"/><path d="m45.1659 320.294h-6.7992" stroke="#d2d8df" stroke-linecap="round"/><path d="m40.6331 304.43-4.5328 4.532" stroke="#d2d8df" stroke-linecap="round"/><path d="m389.657 3v4.53278" stroke="#d2d8df" stroke-linecap="round"/><path d="m376.059 16.5967h4.533" stroke="#d2d8df" stroke-linecap="round"/><path d="m389.657 30.1968v-4.5327" stroke="#d2d8df" stroke-linecap="round"/><path d="m400.989 16.5967h-4.533" stroke="#d2d8df" stroke-linecap="round"/><path d="m126.756 193.374v6.799" stroke="#d2d8df" stroke-linecap="round"/><path d="m106.358 213.773h6.8" stroke="#d2d8df" stroke-linecap="round"/><path d="m126.756 231.905v-6.8" stroke="#d2d8df" stroke-linecap="round"/><path d="m144.887 213.773h-6.799" stroke="#d2d8df" stroke-linecap="round"/><path d="m614.605 440.496c5.417 0 9.809 4.394 9.809 9.812 0 5.419-4.392 9.811-9.809 9.811-5.416 0-9.809-4.392-9.809-9.811" stroke="#d2d8df" stroke-linecap="round"/><g clip-rule="evenodd" fill-rule="evenodd"><path d="m659.498 351.487c5.824-1.817 14.752-8.94 16.818-16.603 1.874 6.774 9.73 14.786 16.818 15.393-7.979 2.825-15.608 11.218-16.818 17.811-.823-6.72-11.375-15.621-16.818-16.601z" fill="#ebecee"/><path d="m61.649 437.476c2.9131-.908 7.375-4.468 8.4082-8.3.9371 3.385 4.8641 7.392 8.4082 7.696-3.9886 1.411-7.8021 5.608-8.4082 8.905-.4117-3.36-5.6875-7.812-8.4082-8.301z" fill="#ebecee"/><path d="m115.707 122.203c0 4.203-3.405 7.607-7.606 7.607-4.202 0-7.606-3.404-7.606-7.607 0-4.202 3.404-7.608 7.606-7.608 4.201 0 7.606 3.406 7.606 7.608z" fill="#d1d8df"/><path d="m607.165 134.417c0 2.485-2.015 4.5-4.5 4.5s-4.5-2.015-4.5-4.5 2.015-4.5 4.5-4.5 4.5 2.015 4.5 4.5z" fill="#ebecee"/><path d="m696 55.6843c0 5.5717-4.514 10.0867-10.082 10.0867-5.57 0-10.084-4.515-10.084-10.0867 0-5.5716 4.514-10.0866 10.084-10.0866 5.568 0 10.082 4.515 10.082 10.0866z" fill="#ebecee"/><path d="m257.854 579.268c0 3.512-2.846 6.359-6.358 6.359-3.509 0-6.355-2.847-6.355-6.359s2.846-6.359 6.355-6.359c3.512 0 6.358 2.847 6.358 6.359z" stroke="#d2d8df" stroke-linecap="round"/><path d="m254.071 73.3266c0 4.2033-3.405 7.6078-7.606 7.6078-4.2 0-7.606-3.4045-7.606-7.6078 0-4.2014 3.406-7.6078 7.606-7.6078 4.201 0 7.606 3.4064 7.606 7.6078z" stroke="#d2d8df" stroke-linecap="round"/><path d="m448.082 649.681c-4.86 1.85-10.299-.592-12.148-5.452-1.849-4.862.591-10.304 5.453-12.152 4.858-1.849 10.297.591 12.146 5.453 1.851 4.861-.59 10.302-5.451 12.151z" stroke="#d2d8df" stroke-linecap="round"/><path d="m445.186 469.878h-185.854c-13.082 0-23.79-10.739-23.79-23.865v-265.037c0-13.126 10.708-23.86 23.79-23.86h185.854c13.087 0 23.795 10.734 23.795 23.86v265.037c0 13.126-10.708 23.865-23.795 23.865z" fill="#e0e2ee"/><path d="m429.322 481.21h-185.855c-13.081 0-23.789-10.739-23.789-23.865v-265.037c0-13.126 10.708-23.86 23.789-23.86h185.855c13.086 0 23.794 10.734 23.794 23.86v265.037c0 13.126-10.708 23.865-23.794 23.865z" fill="#e8ebf2"/><path d="m413.889 490.154h-186.239c-13.108 0-23.838-10.695-23.838-23.766v-263.94c0-13.071 10.73-23.76 23.838-23.76h186.239c13.114 0 23.844 10.689 23.844 23.76v263.94c0 13.071-10.73 23.766-23.844 23.766z" fill="#d8dbea"/><path d="m413.889 490.154h-186.239c-13.108 0-23.838-10.695-23.838-23.766v-263.94c0-13.071 10.73-23.76 23.838-23.76h186.239c13.114 0 23.844 10.689 23.844 23.76v263.94c0 13.071-10.73 23.766-23.844 23.766z" fill="#f1f2f7"/><path d="m387.046 259.103h-137.56c-3.929 0-7.144-3.059-7.144-6.796 0-3.743 3.215-6.802 7.144-6.802h137.56c3.928 0 7.144 3.059 7.144 6.802 0 3.737-3.216 6.796-7.144 6.796z" fill="#e0e2ee"/><path d="m387.046 299.896h-137.56c-3.929 0-7.144-3.059-7.144-6.796 0-3.743 3.215-6.802 7.144-6.802h137.56c3.928 0 7.144 3.059 7.144 6.802 0 3.737-3.216 6.796-7.144 6.796z" fill="#e0e2ee"/><path d="m387.046 340.692h-137.56c-3.929 0-7.144-3.059-7.144-6.797 0-3.737 3.215-6.801 7.144-6.801h137.56c3.928 0 7.144 3.064 7.144 6.801 0 3.738-3.216 6.797-7.144 6.797z" fill="#e0e2ee"/><path d="m387.046 381.488h-137.56c-3.929 0-7.144-3.059-7.144-6.797 0-3.742 3.215-6.801 7.144-6.801h137.56c3.928 0 7.144 3.059 7.144 6.801 0 3.738-3.216 6.797-7.144 6.797z" fill="#e0e2ee"/><path d="m321.29 422.284h-71.774c-3.945 0-7.174-3.059-7.174-6.797 0-3.742 3.229-6.801 7.174-6.801h71.774c3.945 0 7.175 3.059 7.175 6.801 0 3.738-3.23 6.797-7.175 6.797z" fill="#e0e2ee"/><path d="m466.159 369.557c-27.506 27.502-70.09 30.604-101.005 9.371-3.951-2.762-7.712-5.865-11.218-9.371-1.806-1.799-3.507-3.656-5.111-5.611-3.206-3.904-6.015-8.068-8.317-12.37-4.054-7.266-6.811-14.976-8.317-22.946-4.856-24.993 2.405-51.895 21.745-71.226 19.385-19.388 46.292-26.602 71.289-21.792 7.966 1.551 15.683 4.307 22.95 8.315 4.309 2.353 8.415 5.162 12.326 8.368 1.95 1.597 3.807 3.304 5.606 5.109 3.513 3.506 6.662 7.261 9.373 11.217 21.243 30.904 18.134 73.486-9.321 100.936z" fill="#fff" fill-opacity=".1"/><path d="m458.462 364.143c-28.617 28.622-74.992 28.617-103.615 0-28.584-28.585-28.584-74.966.038-103.583 28.585-28.585 74.96-28.585 103.545 0 28.617 28.617 28.617 74.998.032 103.583zm14.687-118.285c-36.733-36.732-96.256-36.732-132.988 0-36.727 36.727-36.759 96.287-.032 133.019 33.431 33.42 85.829 36.434 122.684 8.994 3.599-2.683 7.066-5.692 10.373-8.994 3.301-3.306 6.31-6.773 8.989-10.373 27.439-36.86 24.399-89.221-9.026-122.646z" fill="#e0e2ee"/><path d="m617.706 517.34-1.542 1.542c-10.202 10.208-26.909 10.208-37.116 0l-94.202-94.202 38.658-38.659 94.202 94.202c10.208 10.208 10.208 26.909 0 37.117z" fill="url(#a)"/><path d="m484.205 365.625 27.837 27.837-19.762 19.757-27.832-27.837c3.673-2.738 7.205-5.809 10.585-9.177 3.369-3.369 6.439-6.907 9.172-10.58z" fill="#e0e2ee"/><path d="m616.296 479.063-38.412 38.407-6.916-6.92 38.408-38.407z" fill="#ef545f"/><path d="m525.641 387.349-39.465 39.465-5.863-5.863 39.464-39.465z" fill="url(#b)"/><path d="m439.518 250.716-96.783 96.778c-3.645-6.532-6.123-13.464-7.471-20.629l83.624-83.625c7.16 1.4 14.097 3.873 20.63 7.476z" fill="#fff" fill-opacity=".5"/><path d="m471.247 273.716-104.633 98.705c-3.747-2.467-7.313-5.243-10.639-8.381-1.712-1.615-3.331-3.271-4.846-5.021l105.907-99.917c1.854 1.434 3.616 2.962 5.322 4.577 3.326 3.138 6.318 6.497 8.889 10.037z" fill="#fff" fill-opacity=".5"/></g></svg>