<svg width="20" height="20" viewBox="0 0 20 20" fill="none" xmlns="http://www.w3.org/2000/svg">
<path d="M18.0891 9.41082L11.4225 2.74416C11.3059 2.62761 11.1575 2.54824 10.9958 2.51608C10.8342 2.48392 10.6666 2.50041 10.5144 2.56348C10.3621 2.62654 10.232 2.73335 10.1404 2.87038C10.0488 3.00741 9.99996 3.16851 9.99996 3.33332V6.28742C7.72354 6.49813 5.60767 7.55071 4.0664 9.23919C2.52513 10.9277 1.66938 13.1305 1.66663 15.4167V16.6667C1.66661 16.8397 1.72048 17.0085 1.82075 17.1495C1.92102 17.2906 2.06273 17.3969 2.22618 17.4538C2.38964 17.5107 2.56674 17.5152 2.73291 17.4668C2.89907 17.4185 3.04605 17.3195 3.15344 17.1838C3.96981 16.2129 4.97148 15.4145 6.09993 14.8351C7.22838 14.2557 8.46098 13.907 9.72571 13.8094C9.76721 13.8041 9.87138 13.796 9.99996 13.7878V16.6667C9.99996 16.8315 10.0488 16.9926 10.1404 17.1296C10.232 17.2666 10.3621 17.3734 10.5144 17.4365C10.6666 17.4996 10.8342 17.5161 10.9958 17.4839C11.1575 17.4517 11.3059 17.3724 11.4225 17.2558L18.0891 10.5892C18.1665 10.5118 18.2279 10.4199 18.2698 10.3189C18.3117 10.2178 18.3332 10.1094 18.3332 9.99999C18.3332 9.89056 18.3117 9.78221 18.2698 9.68112C18.2279 9.58003 18.1665 9.48818 18.0891 9.41082ZM11.6666 14.6549V12.9167C11.6667 12.8072 11.6451 12.6988 11.6033 12.5977C11.5614 12.4966 11.5 12.4047 11.4226 12.3273C11.3452 12.2499 11.2533 12.1886 11.1522 12.1467C11.0511 12.1048 10.9427 12.0833 10.8333 12.0833C10.6209 12.0833 9.75338 12.1244 9.53203 12.1542C7.28585 12.361 5.14776 13.2144 3.37643 14.611C3.57737 12.7729 4.44928 11.0736 5.82518 9.83838C7.20109 8.60317 8.98428 7.91892 10.8333 7.91666C10.9427 7.91668 11.0511 7.89515 11.1522 7.85328C11.2533 7.81141 11.3452 7.75003 11.4226 7.67264C11.5 7.59525 11.5614 7.50338 11.6033 7.40226C11.6451 7.30114 11.6667 7.19277 11.6666 7.08332V5.34504L16.3216 9.99999L11.6666 14.6549Z" fill="#9B9B9B"/>
</svg>
