<svg width="26" height="26" viewBox="0 0 26 26" fill="none" xmlns="http://www.w3.org/2000/svg">
<path d="M23.5159 12.2341L14.8493 3.56745C14.6978 3.41594 14.5048 3.31276 14.2946 3.27095C14.0845 3.22914 13.8667 3.25058 13.6688 3.33257C13.4708 3.41455 13.3016 3.55339 13.1826 3.73153C13.0636 3.90967 13 4.11911 13 4.33336V8.17369C10.0407 8.44761 7.29005 9.81597 5.28639 12.011C3.28274 14.206 2.17027 17.0697 2.16669 20.0417V21.6667C2.16667 21.8917 2.2367 22.1111 2.36705 22.2945C2.49741 22.4778 2.68162 22.6161 2.89411 22.69C3.1066 22.7639 3.33684 22.7698 3.55285 22.7069C3.76887 22.644 3.95994 22.5154 4.09955 22.339C5.16083 21.0769 6.463 20.0389 7.92998 19.2857C9.39697 18.5325 10.9993 18.0792 12.6435 17.9523C12.6974 17.9454 12.8329 17.9348 13 17.9242V21.6667C13 21.8809 13.0636 22.0904 13.1826 22.2685C13.3016 22.4467 13.4708 22.5855 13.6688 22.6675C13.8667 22.7495 14.0845 22.7709 14.2946 22.7291C14.5048 22.6873 14.6978 22.5841 14.8493 22.4326L23.5159 13.7659C23.6166 13.6654 23.6964 13.546 23.7508 13.4146C23.8053 13.2831 23.8333 13.1423 23.8333 13C23.8333 12.8578 23.8053 12.7169 23.7508 12.5855C23.6964 12.4541 23.6166 12.3347 23.5159 12.2341Z" fill="white"/>
</svg>
