<svg width="22" height="18" viewBox="0 0 22 18" fill="none" xmlns="http://www.w3.org/2000/svg">
<path d="M12.223 16.8297C11.4697 17.5605 10.5703 17.5681 9.80931 16.8297C8.35651 15.4138 6.91909 13.9903 5.48166 12.5668C4.51313 11.6076 3.54459 10.6485 2.57606 9.6893C1.32312 8.4637 0.769668 6.96406 0.946464 5.23605C1.22319 2.64022 3.18331 0.683832 5.62771 0.386948C7.70314 0.128126 9.44803 0.77518 10.9854 2.12257C11.4235 1.81047 11.8463 1.46791 12.3075 1.19386C14.4214 -0.0393465 17.1963 -0.0165094 19.1026 1.55164C21.5547 3.56132 21.7699 7.35229 19.5408 9.60556C15.615 13.576 15.4344 13.7105 12.223 16.8297Z" fill="#E54A81"/>
</svg>
